<?xml version="1.0" encoding="UTF-8"?>
<svg version="1.1" xmlns="http://www.w3.org/2000/svg" width="610" height="549">
<path d="M0 0 C1.46362305 1.80639648 1.46362305 1.80639648 3.01171875 4.37109375 C3.59622803 5.32491943 4.1807373 6.27874512 4.78295898 7.26147461 C5.41145752 8.30956299 6.03995605 9.35765137 6.6875 10.4375 C8.04551863 12.65708045 9.4049372 14.87580486 10.765625 17.09375 C11.11515732 17.6663707 11.46468964 18.23899139 11.82481384 18.82896423 C15.4440546 24.75302405 19.18273248 30.59855167 22.9375 36.4375 C24.27996777 38.52993518 25.62241559 40.62238316 26.96484375 42.71484375 C27.96427002 44.27114502 27.96427002 44.27114502 28.98388672 45.85888672 C32.32804534 51.06910043 35.6636257 56.28479959 39 61.5 C43.0223957 67.7858238 47.04540559 74.07125256 51.0703125 80.35546875 C57.96660385 91.12429293 64.85100181 101.90042752 71.71142578 112.69213867 C76.12780407 119.63653435 80.56142249 126.56977615 85 133.5 C91.85781682 144.21078347 98.71513221 154.92172332 105.51806641 165.66748047 C106.85059363 167.76483881 108.19469309 169.85415616 109.54296875 171.94140625 C119.49157608 187.58010957 121.86521865 205.45226801 117.82177734 223.64990234 C112.56438674 244.03930309 103.29020901 263.00470105 84.78125 273.98828125 C70.27506174 282.04267675 54.04846047 283.31564199 37.75463867 283.22705078 C36.27490751 283.22648508 34.79517579 283.22680631 33.31544495 283.22793579 C29.34108434 283.22850412 25.36684714 283.2168351 21.39251494 283.20278788 C17.22321577 283.19019281 13.05391304 283.18910316 8.88459778 283.18673706 C1.00849263 283.18054787 -6.86755628 283.16417212 -14.74363679 283.14403808 C-23.71836658 283.12159885 -32.69309922 283.11066557 -41.66785014 283.10064721 C-60.11193274 283.07980331 -78.55595976 283.04426967 -97 283 C-97 291.58 -97 300.16 -97 309 C-100.94507626 307.4219695 -104.21671955 305.81618648 -107.84765625 303.68359375 C-108.40852432 303.35511948 -108.9693924 303.0266452 -109.54725647 302.68821716 C-111.38793111 301.60843849 -113.22534325 300.52325175 -115.0625 299.4375 C-116.35072057 298.67915144 -117.63896971 297.9208514 -118.92724609 297.16259766 C-128.03042353 291.79518201 -137.09073348 286.35750917 -146.125 280.875 C-146.69678986 280.52823212 -147.26857971 280.18146423 -147.85769653 279.82418823 C-151.58082415 277.5639749 -155.29237025 275.28552519 -159 273 C-160.07088867 272.34805664 -161.14177734 271.69611328 -162.24511719 271.02441406 C-163.25477539 270.40018555 -164.26443359 269.77595703 -165.3046875 269.1328125 C-166.66182861 268.29967529 -166.66182861 268.29967529 -168.04638672 267.44970703 C-169.01342529 266.73210205 -169.01342529 266.73210205 -170 266 C-170 265.34 -170 264.68 -170 264 C-168.62084961 262.83349609 -168.62084961 262.83349609 -166.65234375 261.5234375 C-165.54403198 260.77682861 -165.54403198 260.77682861 -164.41333008 260.01513672 C-163.18779419 259.20326904 -163.18779419 259.20326904 -161.9375 258.375 C-160.18941529 257.19893996 -158.44205088 256.02180874 -156.6953125 254.84375 C-155.76750977 254.21984375 -154.83970703 253.5959375 -153.88378906 252.953125 C-148.99370711 249.64118328 -144.15493608 246.25604726 -139.3125 242.875 C-127.44844932 234.60929618 -115.57218384 226.36574935 -103.5625 218.3125 C-102.91667969 217.87760254 -102.27085937 217.44270508 -101.60546875 216.99462891 C-97.11781218 214 -97.11781218 214 -96 214 C-96 222.58 -96 231.16 -96 240 C-93.36 239.67 -90.72 239.34 -88 239 C-86.13055296 238.90223701 -84.25901049 238.83671094 -82.38719177 238.81054688 C-81.3439827 238.79378906 -80.30077362 238.77703125 -79.22595215 238.75976562 C-78.10652222 238.74623047 -76.98709229 238.73269531 -75.83374023 238.71875 C-74.63391006 238.70070313 -73.4340799 238.68265625 -72.19789124 238.6640625 C-68.91956213 238.61551365 -65.64120702 238.57082177 -62.36280322 238.52767944 C-58.89392195 238.48093801 -55.42512358 238.42870604 -51.95631409 238.37695312 C-44.6114938 238.26817776 -37.26660594 238.16472018 -29.92169189 238.0625 C-18.95693055 237.90989133 -7.99222691 237.75339361 2.97240108 237.59148407 C6.40218196 237.54100528 9.83197034 237.49172018 13.26181221 237.44555664 C20.87923445 237.34249129 28.49603538 237.22347045 36.11272049 237.07519531 C38.80888784 237.02304081 41.50496772 236.97407476 44.20124435 236.92871094 C47.74065154 236.86763286 51.27943054 236.79062799 54.81828487 236.70335388 C56.79589304 236.65770956 58.77379852 236.62556753 60.75167942 236.59387207 C69.73674815 236.34964369 77.39381513 235.26149266 84.875 230 C85.59429688 229.505 86.31359375 229.01 87.0546875 228.5 C88.86043087 227.10761957 90.43451444 225.65409795 92 224 C90.71057608 220.5012348 89.19948239 217.57552096 87.0859375 214.5078125 C86.49796387 213.64969971 85.90999023 212.79158691 85.30419922 211.9074707 C84.66756348 210.98925537 84.03092773 210.07104004 83.375 209.125 C82.71129395 208.15973389 82.04758789 207.19446777 81.36376953 206.19995117 C75.88642979 198.24592921 70.36730177 190.32056649 64.84326172 182.39892578 C60.69825795 176.45314928 56.58350078 170.48816131 52.5 164.5 C47.70690445 157.47166996 42.86487229 150.47883008 38 143.5 C33.1351273 136.52116933 28.29314259 129.52829842 23.5 122.5 C17.98295991 114.41069818 12.3988518 106.36932688 6.80078125 98.3359375 C2.58366654 92.28246841 -1.61106731 86.21458536 -5.78222656 80.12939453 C-9.7855996 74.29620443 -13.83039244 68.49214605 -17.875 62.6875 C-23.05894517 55.2410546 -28.23498144 47.78935433 -33.375 40.3125 C-33.91624512 39.5289917 -34.45749023 38.7454834 -35.01513672 37.93823242 C-35.76174561 36.84925659 -35.76174561 36.84925659 -36.5234375 35.73828125 C-36.95575684 35.10962158 -37.38807617 34.48096191 -37.83349609 33.83325195 C-39.03531417 31.94450102 -40.03426456 30.01822528 -41 28 C-33.84647485 22.09916589 -26.43661076 16.66379407 -18.86279297 11.32617188 C-16.92772991 9.948549 -15.01130549 8.54781831 -13.09765625 7.140625 C-12.46375977 6.67769043 -11.82986328 6.21475586 -11.17675781 5.73779297 C-9.95731118 4.84636407 -8.74163674 3.94974597 -7.53027344 3.04736328 C-3.33692469 0 -3.33692469 0 0 0 Z " fill="#1399BB" transform="translate(491,240)"/>
<path d="M0 0 C0.70991775 9.87264759 1.24897491 19.7306117 1.5625 29.625 C1.6049585 30.93863525 1.64741699 32.25227051 1.69116211 33.60571289 C2.11179896 47.40365537 2.10093595 61.19662116 2 75 C-3.00784154 73.07271218 -7.49110251 70.47347974 -12.09179688 67.74609375 C-15.32813003 65.68685293 -15.32813003 65.68685293 -19 65 C-19.31638428 65.5576001 -19.63276855 66.1152002 -19.95874023 66.68969727 C-25.38602936 76.24561329 -30.81636834 85.79457402 -36.50268555 95.19921875 C-39.78739055 100.6327622 -43.02279409 106.09462856 -46.25 111.5625 C-46.80381348 112.50061523 -47.35762695 113.43873047 -47.92822266 114.40527344 C-49.06020927 116.32315326 -50.19204431 118.24112256 -51.32373047 120.15917969 C-53.98512693 124.66952184 -56.64857333 129.1786519 -59.3125 133.6875 C-59.84069336 134.58154541 -60.36888672 135.47559082 -60.91308594 136.39672852 C-65.61080947 144.34602187 -70.31846456 152.28941928 -75.0269165 160.23236084 C-78.50353391 166.09743076 -81.97934923 171.96296603 -85.44921875 177.83203125 C-85.98973877 178.74621826 -86.53025879 179.66040527 -87.0871582 180.60229492 C-88.14849612 182.39968809 -89.20824694 184.19801943 -90.26635742 185.99731445 C-92.94595272 190.55000064 -95.65384694 195.08160389 -98.4140625 199.5859375 C-108.62817461 216.34991279 -115.10539455 232.13726258 -121 251 C-32.89 251 55.22 251 146 251 C146 266.18 146 281.36 146 297 C126.8864621 297.01318984 107.77295534 297.01148225 88.65941811 297.00136471 C85.92847828 296.9999633 83.19753842 296.99872765 80.46659851 296.99750519 C55.15735214 296.98558803 29.84831041 296.94749293 4.53918076 296.86790657 C-6.76524448 296.83293952 -18.06954086 296.80784067 -29.37402344 296.80444336 C-39.41606188 296.80140305 -49.45788709 296.78097639 -59.499843 296.73947543 C-64.76432136 296.71829304 -70.02849708 296.70547429 -75.29301834 296.71384621 C-80.1974064 296.72138494 -85.10116839 296.70557164 -90.00544167 296.67193985 C-91.79443708 296.66373037 -93.58349505 296.66392845 -95.37248421 296.67340279 C-109.44597282 296.74056463 -118.27792339 294.26285803 -128.6796875 284.3828125 C-141.07377744 271.65487502 -147.18816723 254.69118904 -148 237 C-148.0515625 236.27425781 -148.103125 235.54851562 -148.15625 234.80078125 C-149.06750046 211.82967601 -137.22964265 193.20759691 -125.91015625 174.22363281 C-122.72297177 168.84485164 -119.61444487 163.42111098 -116.5 158 C-111.69252669 149.65141825 -106.86093901 141.31756103 -102 133 C-97.16323551 124.7222289 -92.35139713 116.43055903 -87.5625 108.125 C-86.94205811 107.04911621 -86.32161621 105.97323242 -85.68237305 104.86474609 C-82.49741364 99.33942095 -79.31687499 93.81158619 -76.140625 88.28125 C-68.56481436 75.10241595 -60.88486208 61.99653546 -53 49 C-56.34028087 45.32231703 -60.07366412 42.85596568 -64.25 40.25 C-65.22453125 39.63318359 -65.22453125 39.63318359 -66.21875 39.00390625 C-67.8095659 37.99794914 -69.40438433 36.99832638 -71 36 C-70 33 -70 33 -67.18139648 31.3527832 C-65.91623791 30.74177474 -64.6456431 30.14195085 -63.37109375 29.55078125 C-62.68169205 29.22067047 -61.99229034 28.89055969 -61.28199768 28.55044556 C-59.00474165 27.46196554 -56.7212037 26.38737751 -54.4375 25.3125 C-51.24658139 23.79348254 -48.05891259 22.26769719 -44.87109375 20.7421875 C-44.05603363 20.35334885 -43.24097351 19.96451019 -42.4012146 19.56388855 C-36.78807185 16.87944563 -31.21328032 14.12666841 -25.66015625 11.3203125 C-24.55588539 10.7628257 -24.55588539 10.7628257 -23.42930603 10.19407654 C-20.58617183 8.75688717 -17.74414921 7.3176751 -14.90719604 5.86831665 C-12.96145484 4.87466052 -11.0123 3.88800491 -9.0625 2.90234375 C-7.40927734 2.05917603 -7.40927734 2.05917603 -5.72265625 1.19897461 C-3 0 -3 0 0 0 Z " fill="#1399BB" transform="translate(148,238)"/>
<path d="M0 0 C11.12660748 9.31941487 18.72381656 20.80248814 26.79199219 32.73413086 C30.30878847 37.9189728 33.9490849 42.97401126 37.7487793 47.95458984 C42.70025728 54.44738075 47.32210715 61.1236712 51.89331055 67.88818359 C55.37823261 73.01991846 58.98758011 78.02235767 62.7487793 82.95458984 C67.10538425 88.66760478 71.22599144 94.50196316 75.2487793 100.45458984 C79.79804098 107.18321164 84.50854325 113.74397351 89.41381836 120.21679688 C92.82565912 124.71900794 96.19311209 129.24871829 99.4987793 133.82958984 C99.92956787 134.41909424 100.36035645 135.00859863 100.80419922 135.6159668 C103.7487793 139.72032971 103.7487793 139.72032971 103.7487793 141.95458984 C106.66749863 140.18712321 109.58338074 138.41502777 112.4987793 136.64208984 C113.3237793 136.14257812 114.1487793 135.64306641 114.9987793 135.12841797 C115.79799805 134.64179688 116.5972168 134.15517578 117.4206543 133.65380859 C118.15380859 133.2086792 118.88696289 132.7635498 119.64233398 132.30493164 C121.80097635 130.96613133 121.80097635 130.96613133 123.89428711 129.28588867 C125.7487793 127.95458984 125.7487793 127.95458984 127.7487793 127.95458984 C128.72134873 137.77813775 129.06719095 147.59272005 129.3112793 157.45458984 C129.33245819 158.26631653 129.35363708 159.07804321 129.37545776 159.91436768 C129.83941939 177.92784794 129.85461477 195.93650692 129.7487793 213.95458984 C126.08960769 213.33357926 122.93321501 212.31872909 119.52563477 210.85668945 C117.99650955 210.20481911 117.99650955 210.20481911 116.43649292 209.53977966 C115.3407193 209.06694046 114.24494568 208.59410126 113.1159668 208.10693359 C111.96951691 207.6168129 110.82306702 207.1266922 109.64187622 206.62171936 C106.58663084 205.31465012 103.53318969 204.00353505 100.48059082 202.69030762 C97.44500295 201.38535008 94.40736428 200.08518766 91.36987305 198.78466797 C87.82408693 197.26648166 84.27843136 195.74800199 80.73358154 194.22763062 C71.0901678 190.09303775 61.42658105 186.00795969 51.7487793 181.95458984 C53.14091579 178.63683553 54.60568151 177.03745486 57.55737305 175.00927734 C58.30438477 174.48978516 59.05139648 173.97029297 59.82104492 173.43505859 C60.60157227 172.90525391 61.38209961 172.37544922 62.1862793 171.82958984 C62.96293945 171.29205078 63.73959961 170.75451172 64.53979492 170.20068359 C67.59233016 168.09204168 70.66182839 166.01255712 73.7487793 163.95458984 C73.13569544 160.70379862 72.03100599 158.67076542 70.0456543 156.04052734 C69.20357422 154.91324219 69.20357422 154.91324219 68.34448242 153.76318359 C67.73540039 152.96009766 67.12631836 152.15701172 66.4987793 151.32958984 C65.21151153 149.60884091 63.92507173 147.88747231 62.6394043 146.16552734 C61.98649414 145.29379883 61.33358398 144.42207031 60.66088867 143.52392578 C57.81380548 139.69824862 55.0297192 135.8284718 52.2487793 131.95458984 C47.7894354 125.75743338 43.28627928 119.59473883 38.7487793 113.45458984 C34.21126666 107.31442374 29.7093649 101.15086462 25.2487793 94.95458984 C19.10080162 86.42302549 12.90693203 77.92720053 6.6315918 69.48876953 C5.3238769 67.72864496 4.01941971 65.96609721 2.7175293 64.20166016 C0.63394871 61.38241236 -1.4633131 58.57381607 -3.5637207 55.76708984 C-4.19705322 54.90623779 -4.83038574 54.04538574 -5.48291016 53.15844727 C-11.62494025 45.00812396 -18.58594583 38.37171009 -27.5637207 33.45458984 C-28.15733398 33.10912109 -28.75094727 32.76365234 -29.36254883 32.40771484 C-32.68400001 30.54148141 -34.33895776 29.95458984 -38.2512207 29.95458984 C-40.07867177 32.49588597 -41.60358621 34.94132715 -43.13012695 37.65771484 C-44.10796257 39.326139 -45.09007437 40.99206259 -46.07592773 42.65576172 C-46.59278137 43.52934326 -47.10963501 44.4029248 -47.64215088 45.30297852 C-50.27960677 49.64928333 -53.11379948 53.85661604 -55.96606445 58.06396484 C-56.83619675 59.3500766 -56.83619675 59.3500766 -57.72390747 60.66217041 C-59.54257338 63.34498416 -61.36567051 66.02475397 -63.1887207 68.70458984 C-65.12692147 71.56373159 -67.06357246 74.42391845 -69.00003052 77.28424072 C-70.28401714 79.18080393 -71.56841685 81.07708754 -72.85324097 82.9730835 C-78.19335379 90.85668278 -83.48269651 98.77304406 -88.7512207 106.70458984 C-98.4198026 121.2483305 -108.21049314 135.70817361 -118.02667236 150.15258789 C-119.212944 151.8982632 -120.39888807 153.64416053 -121.5847168 155.39013672 C-130.26273982 168.16606252 -138.95078641 180.9352173 -147.66137695 193.68896484 C-150.09602275 197.25509454 -152.51907817 200.82875111 -154.93481445 204.40771484 C-155.52488281 205.2786377 -156.11495117 206.14956055 -156.72290039 207.046875 C-157.83253362 208.68479975 -158.93888275 210.32495626 -160.04125977 211.96777344 C-162.53063892 215.63390589 -164.93788013 218.96546637 -168.2512207 221.95458984 C-169.28118164 221.22755859 -170.31114258 220.50052734 -171.37231445 219.75146484 C-172.39240601 219.03144287 -172.39240601 219.03144287 -173.43310547 218.296875 C-174.95323297 217.22378575 -176.47325022 216.15054029 -177.99316406 215.07714844 C-181.95425689 212.28007703 -185.91698339 209.48539495 -189.8840332 206.69677734 C-190.6272583 206.17374023 -191.3704834 205.65070313 -192.13623047 205.11181641 C-193.54488027 204.12059697 -194.95417985 203.13030001 -196.36425781 202.14111328 C-201.06124269 198.83375181 -205.67291277 195.42422536 -210.2512207 191.95458984 C-209.63607295 188.47529846 -208.30724354 186.40739628 -206.14575195 183.63818359 C-205.17605469 182.38328125 -205.17605469 182.38328125 -204.18676758 181.10302734 C-203.48616211 180.20841797 -202.78555664 179.31380859 -202.0637207 178.39208984 C-200.58976295 176.48554325 -199.11713109 174.57797095 -197.64575195 172.66943359 C-196.53321045 171.22866455 -196.53321045 171.22866455 -195.39819336 169.75878906 C-192.29056288 165.69985755 -189.26658063 161.58227671 -186.2512207 157.45458984 C-180.66565093 149.8264343 -174.95843856 142.29811969 -169.2121582 134.79052734 C-164.83057745 129.05556257 -160.51579113 123.27699421 -156.2512207 117.45458984 C-150.6645965 109.82718968 -144.95845732 102.2981442 -139.2121582 94.79052734 C-134.83057745 89.05556257 -130.51579113 83.27699421 -126.2512207 77.45458984 C-121.32556742 70.72961116 -116.31738033 64.07433939 -111.2512207 57.45458984 C-102.07553902 45.45426348 -93.01309565 33.37605718 -84.36474609 20.98852539 C-75.34942591 8.07645262 -75.34942591 8.07645262 -70.2512207 2.95458984 C-69.60282227 2.28298828 -68.95442383 1.61138672 -68.28637695 0.91943359 C-48.3389388 -18.37872086 -20.61352799 -16.58843442 0 0 Z " fill="#1399BB" transform="translate(336.251220703125,13.04541015625)"/>
<path d="M0 0 C7.4710926 5.3253071 10.07245289 14.7230259 13 23 C13.34289062 23.94488281 13.68578125 24.88976562 14.0390625 25.86328125 C15.14149541 29.01088176 16 31.64310457 16 35 C16.66 35 17.32 35 18 35 C18.24105469 34.20722656 18.48210937 33.41445313 18.73046875 32.59765625 C20.32695441 28.07346151 22.28056946 23.7801218 24.3125 19.4375 C24.69083984 18.60025391 25.06917969 17.76300781 25.45898438 16.90039062 C28.05436395 11.35391955 30.52999982 6.38800007 36.5 4 C40.38237713 4 42.6414159 5.8245784 45.5012207 8.29882812 C47.33987872 10.38577536 48.25310358 12.41401122 49.35546875 14.96875 C50.02993042 16.51212036 50.02993042 16.51212036 50.71801758 18.08666992 C51.20294678 19.21306885 51.68787598 20.33946777 52.1875 21.5 C53.2559233 23.94486202 54.32595485 26.38895351 55.3984375 28.83203125 C55.68219742 29.4798909 55.96595734 30.12775055 56.25831604 30.79524231 C60.17029103 39.70327093 64.25183849 48.53462312 68.31796265 57.37304688 C71.91941692 65.20294504 75.49489926 73.04348097 78.98046875 80.92578125 C79.43683464 81.94807076 79.43683464 81.94807076 79.90242004 82.99101257 C82 87.76674001 82 87.76674001 82 90 C83.14726562 90.11730469 84.29453125 90.23460937 85.4765625 90.35546875 C89.92783712 90.91457078 94.09061658 92.00746975 98.375 93.3125 C99.11234375 93.53397705 99.8496875 93.7554541 100.609375 93.98364258 C112.51220653 97.62105392 112.51220653 97.62105392 117 100 C117.33 100.66 117.66 101.32 118 102 C114.08377238 101.29259948 110.36570827 100.22764473 106.5625 99.0625 C68.26058827 88.20371059 30.5395886 99.14533853 -5.9375 111.25 C-35.94688928 121.18165563 -71.92185188 127.06340583 -102.0703125 114.5078125 C-106.97272674 111.98470331 -110.96298158 108.72487782 -115 105 C-115.70898438 104.35933594 -116.41796875 103.71867187 -117.1484375 103.05859375 C-124.60163771 95.99090389 -129.76279009 87.6110603 -134.8125 78.75 C-135.19784912 78.07646484 -135.58319824 77.40292969 -135.98022461 76.70898438 C-138.10977927 72.89249023 -139.76212545 69.21794291 -141 65 C-137.50818574 67.98278416 -134.02383884 70.97290909 -130.5703125 74 C-124.31501124 79.45975709 -118.13533185 84.69614904 -111 89 C-108.75528539 86.13053208 -106.90489069 83.20306879 -105.13671875 80.01953125 C-104.58669189 79.03299561 -104.03666504 78.04645996 -103.4699707 77.0300293 C-102.88175537 75.96824463 -102.29354004 74.90645996 -101.6875 73.8125 C-100.4245863 71.54421118 -99.16156235 69.27598374 -97.8984375 67.0078125 C-97.24575234 65.83366768 -96.59308311 64.65951402 -95.94042969 63.48535156 C-94.08387864 60.15066072 -92.21969586 56.82040124 -90.3515625 53.4921875 C-89.76415283 52.44538818 -89.17674316 51.39858887 -88.5715332 50.32006836 C-87.40181394 48.23697775 -86.23108316 46.15445481 -85.05932617 44.07250977 C-82.28313179 39.12794081 -79.54318888 34.17020292 -76.88671875 29.16015625 C-76.39776123 28.24532471 -75.90880371 27.33049316 -75.4050293 26.38793945 C-74.50092468 24.69048499 -73.60699155 22.98755307 -72.72583008 21.27807617 C-70.09993495 16.3646556 -67.62262557 13.16873527 -63 10 C-58.7265688 9.23688729 -56.82854666 9.46858732 -53.16796875 11.81640625 C-48.65373309 15.76091133 -46.4085292 21.268443 -43.8125 26.5625 C-42.78045867 28.62786152 -41.74541514 30.69172624 -40.70703125 32.75390625 C-40.03377808 34.12011108 -40.03377808 34.12011108 -39.34692383 35.51391602 C-38.07138279 37.86824525 -36.66488307 39.90812986 -35 42 C-34.55197021 41.04222656 -34.10394043 40.08445312 -33.64233398 39.09765625 C-31.95769446 35.50552124 -30.25566574 31.92184912 -28.54858398 28.34033203 C-27.81571228 26.79664752 -27.08741392 25.25078235 -26.36401367 23.70263672 C-13.03571265 -4.79362041 -13.03571265 -4.79362041 0 0 Z " fill="#087533" transform="translate(319,242)"/>
<path d="M0 0 C1.46362305 1.80639648 1.46362305 1.80639648 3.01171875 4.37109375 C3.59622803 5.32491943 4.1807373 6.27874512 4.78295898 7.26147461 C5.41145752 8.30956299 6.03995605 9.35765137 6.6875 10.4375 C8.04551863 12.65708045 9.4049372 14.87580486 10.765625 17.09375 C11.11515732 17.6663707 11.46468964 18.23899139 11.82481384 18.82896423 C15.4440546 24.75302405 19.18273248 30.59855167 22.9375 36.4375 C24.27996777 38.52993518 25.62241559 40.62238316 26.96484375 42.71484375 C27.96427002 44.27114502 27.96427002 44.27114502 28.98388672 45.85888672 C32.32804534 51.06910043 35.6636257 56.28479959 39 61.5 C43.0223957 67.7858238 47.04540559 74.07125256 51.0703125 80.35546875 C57.96660385 91.12429293 64.85100181 101.90042752 71.71142578 112.69213867 C76.12780407 119.63653435 80.56142249 126.56977615 85 133.5 C91.85781682 144.21078347 98.71513221 154.92172332 105.51806641 165.66748047 C106.85059363 167.76483881 108.19469309 169.85415616 109.54296875 171.94140625 C119.49157608 187.58010957 121.86521865 205.45226801 117.82177734 223.64990234 C112.56438674 244.03930309 103.29020901 263.00470105 84.78125 273.98828125 C70.27506174 282.04267675 54.04846047 283.31564199 37.75463867 283.22705078 C36.27490751 283.22648508 34.79517579 283.22680631 33.31544495 283.22793579 C29.34108434 283.22850412 25.36684714 283.2168351 21.39251494 283.20278788 C17.22321577 283.19019281 13.05391304 283.18910316 8.88459778 283.18673706 C1.00849263 283.18054787 -6.86755628 283.16417212 -14.74363679 283.14403808 C-23.71836658 283.12159885 -32.69309922 283.11066557 -41.66785014 283.10064721 C-60.11193274 283.07980331 -78.55595976 283.04426967 -97 283 C-97 291.58 -97 300.16 -97 309 C-100.94507626 307.4219695 -104.21671955 305.81618648 -107.84765625 303.68359375 C-108.40852432 303.35511948 -108.9693924 303.0266452 -109.54725647 302.68821716 C-111.38793111 301.60843849 -113.22534325 300.52325175 -115.0625 299.4375 C-116.35072057 298.67915144 -117.63896971 297.9208514 -118.92724609 297.16259766 C-128.03042353 291.79518201 -137.09073348 286.35750917 -146.125 280.875 C-146.69678986 280.52823212 -147.26857971 280.18146423 -147.85769653 279.82418823 C-151.58082415 277.5639749 -155.29237025 275.28552519 -159 273 C-160.07088867 272.34805664 -161.14177734 271.69611328 -162.24511719 271.02441406 C-163.25477539 270.40018555 -164.26443359 269.77595703 -165.3046875 269.1328125 C-166.66182861 268.29967529 -166.66182861 268.29967529 -168.04638672 267.44970703 C-169.01342529 266.73210205 -169.01342529 266.73210205 -170 266 C-170 265.34 -170 264.68 -170 264 C-168.62084961 262.83349609 -168.62084961 262.83349609 -166.65234375 261.5234375 C-165.54403198 260.77682861 -165.54403198 260.77682861 -164.41333008 260.01513672 C-163.18779419 259.20326904 -163.18779419 259.20326904 -161.9375 258.375 C-160.18941529 257.19893996 -158.44205088 256.02180874 -156.6953125 254.84375 C-155.76750977 254.21984375 -154.83970703 253.5959375 -153.88378906 252.953125 C-148.99370711 249.64118328 -144.15493608 246.25604726 -139.3125 242.875 C-127.44844932 234.60929618 -115.57218384 226.36574935 -103.5625 218.3125 C-102.91667969 217.87760254 -102.27085937 217.44270508 -101.60546875 216.99462891 C-97.11781218 214 -97.11781218 214 -96 214 C-96 222.58 -96 231.16 -96 240 C-93.36 239.67 -90.72 239.34 -88 239 C-86.13055296 238.90223701 -84.25901049 238.83671094 -82.38719177 238.81054688 C-81.3439827 238.79378906 -80.30077362 238.77703125 -79.22595215 238.75976562 C-78.10652222 238.74623047 -76.98709229 238.73269531 -75.83374023 238.71875 C-74.63391006 238.70070313 -73.4340799 238.68265625 -72.19789124 238.6640625 C-68.91956213 238.61551365 -65.64120702 238.57082177 -62.36280322 238.52767944 C-58.89392195 238.48093801 -55.42512358 238.42870604 -51.95631409 238.37695312 C-44.6114938 238.26817776 -37.26660594 238.16472018 -29.92169189 238.0625 C-18.95693055 237.90989133 -7.99222691 237.75339361 2.97240108 237.59148407 C6.40218196 237.54100528 9.83197034 237.49172018 13.26181221 237.44555664 C20.87923445 237.34249129 28.49603538 237.22347045 36.11272049 237.07519531 C38.80888784 237.02304081 41.50496772 236.97407476 44.20124435 236.92871094 C47.74065154 236.86763286 51.27943054 236.79062799 54.81828487 236.70335388 C56.79589304 236.65770956 58.77379852 236.62556753 60.75167942 236.59387207 C69.73674815 236.34964369 77.39381513 235.26149266 84.875 230 C85.59429688 229.505 86.31359375 229.01 87.0546875 228.5 C88.86043087 227.10761957 90.43451444 225.65409795 92 224 C90.71057608 220.5012348 89.19948239 217.57552096 87.0859375 214.5078125 C86.49796387 213.64969971 85.90999023 212.79158691 85.30419922 211.9074707 C84.66756348 210.98925537 84.03092773 210.07104004 83.375 209.125 C82.71129395 208.15973389 82.04758789 207.19446777 81.36376953 206.19995117 C75.88642979 198.24592921 70.36730177 190.32056649 64.84326172 182.39892578 C60.69825795 176.45314928 56.58350078 170.48816131 52.5 164.5 C47.70690445 157.47166996 42.86487229 150.47883008 38 143.5 C33.1351273 136.52116933 28.29314259 129.52829842 23.5 122.5 C17.98295991 114.41069818 12.3988518 106.36932688 6.80078125 98.3359375 C2.58366654 92.28246841 -1.61106731 86.21458536 -5.78222656 80.12939453 C-9.7855996 74.29620443 -13.83039244 68.49214605 -17.875 62.6875 C-23.05894517 55.2410546 -28.23498144 47.78935433 -33.375 40.3125 C-33.91624512 39.5289917 -34.45749023 38.7454834 -35.01513672 37.93823242 C-35.76174561 36.84925659 -35.76174561 36.84925659 -36.5234375 35.73828125 C-36.95575684 35.10962158 -37.38807617 34.48096191 -37.83349609 33.83325195 C-39.03531417 31.94450102 -40.03426456 30.01822528 -41 28 C-33.84647485 22.09916589 -26.43661076 16.66379407 -18.86279297 11.32617188 C-16.92772991 9.948549 -15.01130549 8.54781831 -13.09765625 7.140625 C-12.46375977 6.67769043 -11.82986328 6.21475586 -11.17675781 5.73779297 C-9.95731118 4.84636407 -8.74163674 3.94974597 -7.53027344 3.04736328 C-3.33692469 0 -3.33692469 0 0 0 Z M112 181 C111.76925781 182.16015625 111.53851562 183.3203125 111.30078125 184.515625 C107.57852785 202.61039781 101.4756277 220.21769248 85.890625 231.53125 C74.30614084 239.02196908 61.43664419 238.11777389 48.04492188 238.28125 C46.22682259 238.30832031 46.22682259 238.30832031 44.37199402 238.3359375 C41.08788634 238.38416843 37.80375369 238.42895479 34.51957893 238.47232056 C31.03558852 238.51934296 27.55167369 238.57141819 24.06774902 238.62304688 C15.95918602 238.74241838 7.85054629 238.8559274 -0.25811005 238.96875 C-10.51928472 239.11178187 -20.7804177 239.25753677 -31.04147863 239.40851593 C-34.48287568 239.45899297 -37.92428005 239.50828299 -41.36573792 239.55444336 C-60.25554503 239.80932314 -79.12191207 240.30758076 -98 241 C-98 233.08 -98 225.16 -98 217 C-112.16264233 225.85165146 -125.76276903 235.5226645 -139.46484375 245.06469727 C-159.0684054 258.71227026 -159.0684054 258.71227026 -167 264 C-165.66467719 268.00596842 -164.00168851 268.44342099 -160.3671875 270.51953125 C-159.49702499 271.02235626 -159.49702499 271.02235626 -158.60928345 271.53533936 C-157.356422 272.25817039 -156.10122653 272.97696767 -154.84399414 273.69216919 C-151.51855829 275.58429683 -148.20997733 277.50556815 -144.8984375 279.421875 C-144.22935364 279.80787369 -143.56026978 280.19387238 -142.87091064 280.59156799 C-136.69327917 284.16042712 -130.5857279 287.83913401 -124.5 291.5625 C-123.56567139 292.13282959 -122.63134277 292.70315918 -121.66870117 293.29077148 C-117.68884418 295.72483726 -113.71730967 298.17121797 -109.76171875 300.64453125 C-109.14554687 301.02859131 -108.529375 301.41265137 -107.89453125 301.80834961 C-106.33692081 302.78163336 -104.78346757 303.76156209 -103.23046875 304.7421875 C-101.13643156 306.16373416 -101.13643156 306.16373416 -99 306 C-99 297.75 -99 289.5 -99 281 C-96.11506302 281.00999275 -96.11506302 281.00999275 -93.17184448 281.02018738 C-75.01649843 281.08109237 -56.86117316 281.12619833 -38.7057476 281.15543652 C-29.37263749 281.17086823 -20.03960393 281.19188661 -10.70654297 281.22631836 C-2.56648807 281.25633438 5.57351135 281.27560182 13.71362007 281.28226548 C18.01888838 281.28615718 22.32399805 281.29522504 26.62921524 281.31719017 C30.69215757 281.33774873 34.75487787 281.34379525 38.81786728 281.33932304 C40.29877688 281.34013968 41.77969491 281.34598893 43.26055908 281.35761642 C63.85000226 281.51117454 81.71786258 276.46578855 97.125 262.4375 C111.40263483 247.46901187 117.83638612 224.97046257 118.375 204.75 C118.17711777 196.58971389 117.47679522 187.41260617 112 181 Z " fill="#1399BB" transform="translate(491,240)"/>
<path d="M0 0 C0.79148437 0.40089844 1.58296875 0.80179687 2.3984375 1.21484375 C15.39684904 8.28811186 25.26059287 19.80195403 33.5625 31.8125 C34.6149811 33.31964233 35.66839833 34.82613128 36.72265625 36.33203125 C37.26164551 37.10240723 37.80063477 37.8727832 38.35595703 38.66650391 C41.03551819 42.46977767 43.76783911 46.23442475 46.5 50 C51.21085026 56.50025927 55.86298066 63.03864532 60.48046875 69.60546875 C64.11454566 74.7656672 67.79671401 79.8892894 71.5 85 C76.21040657 91.50058483 80.86297608 98.0386388 85.48046875 104.60546875 C89.64524948 110.51923876 93.87794316 116.38214547 98.12255859 122.23876953 C102.50794054 128.29792101 106.83262008 134.3983033 111.13085938 140.51953125 C113.37646664 143.71508333 115.62817955 146.89593968 118 150 C123.65204156 148.06786791 128.40104626 144.67639396 133.38085938 141.45703125 C134.07373047 141.01488281 134.76660156 140.57273438 135.48046875 140.1171875 C136.10848389 139.71097168 136.73649902 139.30475586 137.38354492 138.88623047 C139 138 139 138 141 138 C141.26353088 146.34618609 141.52448254 154.69244743 141.78230286 163.03881168 C141.90214645 166.91596936 142.02281903 170.79309724 142.14550781 174.67016602 C142.2642746 178.42432509 142.38070503 182.17855051 142.49563599 185.9328289 C142.53947804 187.3522841 142.58410768 188.77171524 142.62960815 190.19111824 C142.93686787 199.79795321 143.05430474 209.38886982 143 219 C136.49085105 216.94594532 130.22030923 214.51147335 123.9453125 211.83203125 C123.0042868 211.43352463 122.06326111 211.03501801 121.09371948 210.62443542 C118.1027702 209.35700571 115.1138425 208.0848888 112.125 206.8125 C110.15899039 205.97819454 108.19284552 205.14420775 106.2265625 204.31054688 C102.36432545 202.6727567 98.50276319 201.03339011 94.64160156 199.39306641 C86.43587966 195.90938478 78.21832916 192.45381074 70 189 C70 188.01 70 187.02 70 186 C71.3894043 184.62133789 71.3894043 184.62133789 73.32421875 183.22265625 C74.02353516 182.70896484 74.72285156 182.19527344 75.44335938 181.66601562 C76.18392578 181.13685547 76.92449219 180.60769531 77.6875 180.0625 C79.12936489 179.01234818 80.57078118 177.9615801 82.01171875 176.91015625 C82.69669434 176.41402832 83.38166992 175.91790039 84.08740234 175.40673828 C86.44692873 173.67127861 88.73366107 171.85509005 91 170 C90.67427002 169.54898926 90.34854004 169.09797852 90.01293945 168.63330078 C89.02171366 167.2608343 88.03050437 165.8883559 87.03930664 164.51586914 C85.87064248 162.89778232 84.70185644 161.27978353 83.53295898 159.66186523 C80.59731798 155.59818606 77.66314716 151.53347686 74.734375 147.46484375 C68.61811013 138.97301069 62.45020685 130.52224073 56.23071289 122.10571289 C52.28592638 116.76163949 48.38070406 111.39075154 44.5 106 C35.00520283 92.82404567 25.3749301 79.75396068 15.5625 66.8125 C14.91240967 65.95164795 14.26231934 65.0907959 13.5925293 64.20385742 C-3.72364673 41.46178316 -24.64160097 30.38879985 -53 26 C-56.99667716 25.55448296 -60.98462311 25.21684531 -65 25 C-58.52535894 12.05071788 -47.70068691 2.77387295 -34.2265625 -2.2734375 C-23.35402317 -5.82131875 -10.04419898 -5.66095314 0 0 Z " fill="#1399BB" transform="translate(322,6)"/>
<path d="M0 0 C82.17 0 164.34 0 249 0 C249 14.19 249 28.38 249 43 C227.63528052 43.02292995 206.27057162 43.0411955 184.90584278 43.05181217 C174.97685606 43.05688147 165.04787781 43.06376285 155.11889648 43.07543945 C105.73599384 43.1323817 56.3751318 42.9229678 7 42 C6.01811439 39.41767086 5.03940411 36.83421317 4.0625 34.25 C3.78470703 33.52039063 3.50691406 32.79078125 3.22070312 32.0390625 C2.95322266 31.33007812 2.68574219 30.62109375 2.41015625 29.890625 C2.16402588 29.24125977 1.91789551 28.59189453 1.66430664 27.92285156 C-1.69449786 18.20071109 0 12.56810005 0 0 Z " fill="#1399BB" transform="translate(43,490)"/>
<path d="M0 0 C7.4710926 5.3253071 10.07245289 14.7230259 13 23 C13.34289062 23.94488281 13.68578125 24.88976562 14.0390625 25.86328125 C15.14149541 29.01088176 16 31.64310457 16 35 C16.66 35 17.32 35 18 35 C18.24105469 34.20722656 18.48210937 33.41445313 18.73046875 32.59765625 C20.32695441 28.07346151 22.28056946 23.7801218 24.3125 19.4375 C24.69083984 18.60025391 25.06917969 17.76300781 25.45898438 16.90039062 C28.05436395 11.35391955 30.52999982 6.38800007 36.5 4 C40.38237713 4 42.6414159 5.8245784 45.5012207 8.29882812 C47.33987872 10.38577536 48.25310358 12.41401122 49.35546875 14.96875 C49.80510986 15.99766357 50.25475098 17.02657715 50.71801758 18.08666992 C51.20294678 19.21306885 51.68787598 20.33946777 52.1875 21.5 C53.2559233 23.94486202 54.32595485 26.38895351 55.3984375 28.83203125 C55.68219742 29.4798909 55.96595734 30.12775055 56.25831604 30.79524231 C60.17029103 39.70327093 64.25183849 48.53462312 68.31796265 57.37304688 C71.91941692 65.20294504 75.49489926 73.04348097 78.98046875 80.92578125 C79.28471268 81.60730759 79.5889566 82.28883392 79.90242004 82.99101257 C82 87.76674001 82 87.76674001 82 90 C80.24623047 89.76603516 80.24623047 89.76603516 78.45703125 89.52734375 C71.54991672 88.77332716 64.62933521 88.62276648 57.6875 88.5625 C56.59375061 88.55274139 56.59375061 88.55274139 55.47790527 88.54278564 C39.65427703 88.47900486 24.4951365 90.90161279 8.99726868 93.88700867 C2.36210451 95.15635535 -4.30273419 96.11293617 -11 97 C-11.45737549 96.05495605 -11.91475098 95.10991211 -12.38598633 94.13623047 C-14.13588504 90.52155544 -15.88749967 86.90771417 -17.63970947 83.29415894 C-18.41931731 81.68603265 -19.19857557 80.07773685 -19.97747803 78.4692688 C-23.8041412 70.56878001 -27.63433268 62.67280831 -31.61328125 54.84765625 C-32.12979248 53.8313916 -32.64630371 52.81512695 -33.1784668 51.76806641 C-34.12470856 49.91646691 -35.07773606 48.06831558 -36.03833008 46.22412109 C-36.45107178 45.41668457 -36.86381348 44.60924805 -37.2890625 43.77734375 C-37.64693848 43.08890381 -38.00481445 42.40046387 -38.37353516 41.69116211 C-38.58026855 41.13307861 -38.78700195 40.57499512 -39 40 C-38.67 39.34 -38.34 38.68 -38 38 C-37.01 39.32 -36.02 40.64 -35 42 C-34.55197021 41.04222656 -34.10394043 40.08445312 -33.64233398 39.09765625 C-31.95769446 35.50552124 -30.25566574 31.92184912 -28.54858398 28.34033203 C-27.81571228 26.79664752 -27.08741392 25.25078235 -26.36401367 23.70263672 C-13.03571265 -4.79362041 -13.03571265 -4.79362041 0 0 Z " fill="#087332" transform="translate(319,242)"/>
<path d="M0 0 C3.44872198 2.94354063 6.88943832 5.89431647 10.2890625 8.89453125 C37.06407269 32.42119051 64.59052637 38.92751065 100 37 C106.3684536 36.32449138 112.60228706 34.99992724 118.85839844 33.65917969 C129.24119153 31.4806328 139.6968932 29.6254489 150.13183594 27.71386719 C152.56382629 27.26504493 154.99441577 26.8084934 157.42285156 26.34082031 C180.9356162 21.84141996 207.59866295 19.73976971 231 26 C231.71381836 26.18755859 232.42763672 26.37511719 233.16308594 26.56835938 C251.10743839 31.34630415 251.10743839 31.34630415 258 35 C258.33 35.66 258.66 36.32 259 37 C255.08377238 36.29259948 251.36570827 35.22764473 247.5625 34.0625 C209.26058827 23.20371059 171.5395886 34.14533853 135.0625 46.25 C105.05311072 56.18165563 69.07814812 62.06340583 38.9296875 49.5078125 C34.02727326 46.98470331 30.03701842 43.72487782 26 40 C24.93652344 39.03900391 24.93652344 39.03900391 23.8515625 38.05859375 C16.39836229 30.99090389 11.23720991 22.6110603 6.1875 13.75 C5.80215088 13.07646484 5.41680176 12.40292969 5.01977539 11.70898438 C2.89022073 7.89249023 1.23787455 4.21794291 0 0 Z " fill="#31A3C0" transform="translate(178,307)"/>
<path d="M0 0 C1.46362305 1.80639648 1.46362305 1.80639648 3.01171875 4.37109375 C3.59622803 5.32491943 4.1807373 6.27874512 4.78295898 7.26147461 C5.41145752 8.30956299 6.03995605 9.35765137 6.6875 10.4375 C8.04551863 12.65708045 9.4049372 14.87580486 10.765625 17.09375 C11.11515732 17.6663707 11.46468964 18.23899139 11.82481384 18.82896423 C15.4440546 24.75302405 19.18273248 30.59855167 22.9375 36.4375 C24.27996777 38.52993518 25.62241559 40.62238316 26.96484375 42.71484375 C27.96427002 44.27114502 27.96427002 44.27114502 28.98388672 45.85888672 C32.32804534 51.06910043 35.6636257 56.28479959 39 61.5 C43.0223957 67.7858238 47.04540559 74.07125256 51.0703125 80.35546875 C57.96660385 91.12429293 64.85100181 101.90042752 71.71142578 112.69213867 C76.12780407 119.63653435 80.56142249 126.56977615 85 133.5 C91.85781682 144.21078347 98.71513221 154.92172332 105.51806641 165.66748047 C106.85059363 167.76483881 108.19469309 169.85415616 109.54296875 171.94140625 C119.49157608 187.58010957 121.86521865 205.45226801 117.82177734 223.64990234 C112.56438674 244.03930309 103.29020901 263.00470105 84.78125 273.98828125 C70.27506174 282.04267675 54.04846047 283.31564199 37.75463867 283.22705078 C36.27490751 283.22648508 34.79517579 283.22680631 33.31544495 283.22793579 C29.34108434 283.22850412 25.36684714 283.2168351 21.39251494 283.20278788 C17.22321577 283.19019281 13.05391304 283.18910316 8.88459778 283.18673706 C1.00849263 283.18054787 -6.86755628 283.16417212 -14.74363679 283.14403808 C-23.71836658 283.12159885 -32.69309922 283.11066557 -41.66785014 283.10064721 C-60.11193274 283.07980331 -78.55595976 283.04426967 -97 283 C-97 291.58 -97 300.16 -97 309 C-100.94507626 307.4219695 -104.21671955 305.81618648 -107.84765625 303.68359375 C-108.40852432 303.35511948 -108.9693924 303.0266452 -109.54725647 302.68821716 C-111.38793111 301.60843849 -113.22534325 300.52325175 -115.0625 299.4375 C-116.35072057 298.67915144 -117.63896971 297.9208514 -118.92724609 297.16259766 C-128.03042353 291.79518201 -137.09073348 286.35750917 -146.125 280.875 C-146.69678986 280.52823212 -147.26857971 280.18146423 -147.85769653 279.82418823 C-151.58082415 277.5639749 -155.29237025 275.28552519 -159 273 C-160.07088867 272.34805664 -161.14177734 271.69611328 -162.24511719 271.02441406 C-163.25477539 270.40018555 -164.26443359 269.77595703 -165.3046875 269.1328125 C-166.66182861 268.29967529 -166.66182861 268.29967529 -168.04638672 267.44970703 C-169.01342529 266.73210205 -169.01342529 266.73210205 -170 266 C-170 265.34 -170 264.68 -170 264 C-168.62084961 262.83349609 -168.62084961 262.83349609 -166.65234375 261.5234375 C-165.54403198 260.77682861 -165.54403198 260.77682861 -164.41333008 260.01513672 C-163.18779419 259.20326904 -163.18779419 259.20326904 -161.9375 258.375 C-160.18941529 257.19893996 -158.44205088 256.02180874 -156.6953125 254.84375 C-155.76750977 254.21984375 -154.83970703 253.5959375 -153.88378906 252.953125 C-148.99370711 249.64118328 -144.15493608 246.25604726 -139.3125 242.875 C-127.44844932 234.60929618 -115.57218384 226.36574935 -103.5625 218.3125 C-102.91667969 217.87760254 -102.27085937 217.44270508 -101.60546875 216.99462891 C-97.11781218 214 -97.11781218 214 -96 214 C-96 222.58 -96 231.16 -96 240 C-93.36 239.67 -90.72 239.34 -88 239 C-86.13055296 238.90223701 -84.25901049 238.83671094 -82.38719177 238.81054688 C-81.3439827 238.79378906 -80.30077362 238.77703125 -79.22595215 238.75976562 C-78.10652222 238.74623047 -76.98709229 238.73269531 -75.83374023 238.71875 C-74.63391006 238.70070313 -73.4340799 238.68265625 -72.19789124 238.6640625 C-68.91956213 238.61551365 -65.64120702 238.57082177 -62.36280322 238.52767944 C-58.89392195 238.48093801 -55.42512358 238.42870604 -51.95631409 238.37695312 C-44.6114938 238.26817776 -37.26660594 238.16472018 -29.92169189 238.0625 C-18.95693055 237.90989133 -7.99222691 237.75339361 2.97240108 237.59148407 C6.40218196 237.54100528 9.83197034 237.49172018 13.26181221 237.44555664 C20.87923445 237.34249129 28.49603538 237.22347045 36.11272049 237.07519531 C38.80888784 237.02304081 41.50496772 236.97407476 44.20124435 236.92871094 C47.74065154 236.86763286 51.27943054 236.79062799 54.81828487 236.70335388 C56.79589304 236.65770956 58.77379852 236.62556753 60.75167942 236.59387207 C69.73674815 236.34964369 77.39381513 235.26149266 84.875 230 C85.59429688 229.505 86.31359375 229.01 87.0546875 228.5 C88.86043087 227.10761957 90.43451444 225.65409795 92 224 C90.71057608 220.5012348 89.19948239 217.57552096 87.0859375 214.5078125 C86.49796387 213.64969971 85.90999023 212.79158691 85.30419922 211.9074707 C84.66756348 210.98925537 84.03092773 210.07104004 83.375 209.125 C82.71129395 208.15973389 82.04758789 207.19446777 81.36376953 206.19995117 C75.88642979 198.24592921 70.36730177 190.32056649 64.84326172 182.39892578 C60.69825795 176.45314928 56.58350078 170.48816131 52.5 164.5 C47.70690445 157.47166996 42.86487229 150.47883008 38 143.5 C33.1351273 136.52116933 28.29314259 129.52829842 23.5 122.5 C17.98295991 114.41069818 12.3988518 106.36932688 6.80078125 98.3359375 C2.58366654 92.28246841 -1.61106731 86.21458536 -5.78222656 80.12939453 C-9.7855996 74.29620443 -13.83039244 68.49214605 -17.875 62.6875 C-23.05894517 55.2410546 -28.23498144 47.78935433 -33.375 40.3125 C-33.91624512 39.5289917 -34.45749023 38.7454834 -35.01513672 37.93823242 C-35.76174561 36.84925659 -35.76174561 36.84925659 -36.5234375 35.73828125 C-36.95575684 35.10962158 -37.38807617 34.48096191 -37.83349609 33.83325195 C-39.03531417 31.94450102 -40.03426456 30.01822528 -41 28 C-33.84647485 22.09916589 -26.43661076 16.66379407 -18.86279297 11.32617188 C-16.92772991 9.948549 -15.01130549 8.54781831 -13.09765625 7.140625 C-12.46375977 6.67769043 -11.82986328 6.21475586 -11.17675781 5.73779297 C-9.95731118 4.84636407 -8.74163674 3.94974597 -7.53027344 3.04736328 C-3.33692469 0 -3.33692469 0 0 0 Z M-6.5 4.38671875 C-7.57145264 5.16752808 -7.57145264 5.16752808 -8.66455078 5.96411133 C-9.82059814 6.81718872 -9.82059814 6.81718872 -11 7.6875 C-12.62229224 8.87253766 -14.24469139 10.05742899 -15.8671875 11.2421875 C-17.12740723 12.16596191 -17.12740723 12.16596191 -18.41308594 13.10839844 C-22.63604206 16.19630558 -26.88131999 19.25317231 -31.125 22.3125 C-32.64854434 23.41261247 -34.17199178 24.51285916 -35.6953125 25.61328125 C-36.796875 26.40885417 -37.8984375 27.20442708 -39 28 C-35.88287172 33.70076272 -32.32376858 38.95672782 -28.5625 44.25 C-27.29993089 46.03976501 -26.03823163 47.83014392 -24.77734375 49.62109375 C-24.14296387 50.5219873 -23.50858398 51.42288086 -22.85498047 52.35107422 C-20.07859151 56.31577812 -17.34948096 60.31202327 -14.625 64.3125 C-9.74859109 71.46581965 -4.82432841 78.58444267 0.125 85.6875 C6.88079351 95.38341101 13.59129898 105.10902484 20.27246094 114.85644531 C26.14893774 123.42723974 32.0612694 131.97219977 38 140.5 C44.79626634 150.25919023 51.54886339 160.04711382 58.27246094 169.85644531 C66.17801482 181.38663244 74.13859117 192.87803588 82.14648438 204.33740234 C83.82237674 206.74484203 85.48398404 209.16132674 87.140625 211.58203125 C88.03094149 212.86740125 88.92154009 214.15257591 89.8125 215.4375 C90.20252197 216.0164502 90.59254395 216.59540039 90.99438477 217.19189453 C92.15994611 218.90943379 92.15994611 218.90943379 94 221 C94.99 221 95.98 221 97 221 C84.69867865 234.07015393 75.60139933 237.48950235 57.75291443 238.11352539 C54.51687638 238.19197671 51.28166405 238.24173828 48.04492188 238.28125 C46.22682259 238.30832031 46.22682259 238.30832031 44.37199402 238.3359375 C41.08788634 238.38416843 37.80375369 238.42895479 34.51957893 238.47232056 C31.03558852 238.51934296 27.55167369 238.57141819 24.06774902 238.62304688 C15.95918602 238.74241838 7.85054629 238.8559274 -0.25811005 238.96875 C-10.51928472 239.11178187 -20.7804177 239.25753677 -31.04147863 239.40851593 C-34.48287568 239.45899297 -37.92428005 239.50828299 -41.36573792 239.55444336 C-60.25554503 239.80932314 -79.12191207 240.30758076 -98 241 C-98 233.08 -98 225.16 -98 217 C-112.16264233 225.85165146 -125.76276903 235.5226645 -139.46484375 245.06469727 C-159.0684054 258.71227026 -159.0684054 258.71227026 -167 264 C-165.66467719 268.00596842 -164.00168851 268.44342099 -160.3671875 270.51953125 C-159.78707916 270.85474792 -159.20697083 271.1899646 -158.60928345 271.53533936 C-157.356422 272.25817039 -156.10122653 272.97696767 -154.84399414 273.69216919 C-151.51855829 275.58429683 -148.20997733 277.50556815 -144.8984375 279.421875 C-144.22935364 279.80787369 -143.56026978 280.19387238 -142.87091064 280.59156799 C-136.69327917 284.16042712 -130.5857279 287.83913401 -124.5 291.5625 C-123.56567139 292.13282959 -122.63134277 292.70315918 -121.66870117 293.29077148 C-117.68884418 295.72483726 -113.71730967 298.17121797 -109.76171875 300.64453125 C-109.14554687 301.02859131 -108.529375 301.41265137 -107.89453125 301.80834961 C-106.33692081 302.78163336 -104.78346757 303.76156209 -103.23046875 304.7421875 C-101.13643156 306.16373416 -101.13643156 306.16373416 -99 306 C-99 297.75 -99 289.5 -99 281 C-96.11506302 281.00999275 -96.11506302 281.00999275 -93.17184448 281.02018738 C-75.01649843 281.08109237 -56.86117316 281.12619833 -38.7057476 281.15543652 C-29.37263749 281.17086823 -20.03960393 281.19188661 -10.70654297 281.22631836 C-2.56648807 281.25633438 5.57351135 281.27560182 13.71362007 281.28226548 C18.01888838 281.28615718 22.32399805 281.29522504 26.62921524 281.31719017 C30.69215757 281.33774873 34.75487787 281.34379525 38.81786728 281.33932304 C40.29877688 281.34013968 41.77969491 281.34598893 43.26055908 281.35761642 C63.85000226 281.51117454 81.71786258 276.46578855 97.125 262.4375 C111.40263483 247.46901187 117.83638612 224.97046257 118.375 204.75 C118.17711777 196.58971389 117.47679522 187.41260617 112 181 C111.58427734 182.91425781 111.58427734 182.91425781 111.16015625 184.8671875 C110.79441043 186.53648893 110.42851738 188.2057581 110.0625 189.875 C109.88009766 190.71675781 109.69769531 191.55851563 109.50976562 192.42578125 C109.33251953 193.23144531 109.15527344 194.03710938 108.97265625 194.8671875 C108.81031494 195.61081543 108.64797363 196.35444336 108.48071289 197.12060547 C108 199 108 199 107 201 C107.30744141 199.78376953 107.30744141 199.78376953 107.62109375 198.54296875 C108.18576896 196.22212662 108.7175531 193.8931252 109.22265625 191.55859375 C109.6829651 189.45135075 110.19289818 187.35234668 110.80859375 185.28515625 C112.06355078 179.66814169 110.88736054 176.17625736 107.94262695 171.44555664 C105.94654723 168.4509074 103.8757447 165.51274269 101.79199219 162.57861328 C98.43986202 157.75501671 95.33389955 152.77163535 92.1875 147.8125 C90.80658638 145.65196219 89.42507511 143.49180625 88.04296875 141.33203125 C83.7830512 134.66358686 79.5350124 127.98762335 75.28979492 121.30981445 C70.87304388 114.36474656 66.43910991 107.4307942 62 100.5 C56.41440187 91.77919067 50.84495948 83.04834949 45.2890625 74.30859375 C40.1999171 66.30643074 35.08722485 58.31944528 29.97192383 50.33398438 C26.12234456 44.32242766 22.28209953 38.30510773 18.45410156 32.27978516 C16.18220442 28.70490665 13.90512907 25.13333729 11.62841797 21.56152344 C9.9971647 18.99554003 8.37524573 16.42381833 6.75390625 13.8515625 C5.75289961 12.27585394 4.75161295 10.70032322 3.75 9.125 C3.29584717 8.39861328 2.84169434 7.67222656 2.3737793 6.92382812 C1.30238935 5.24733766 0.15845826 3.61755097 -1 2 C-3.60182688 2 -4.41215404 2.85372428 -6.5 4.38671875 Z " fill="#085F6B" transform="translate(491,240)"/>
<path d="M0 0 C11.12660748 9.31941487 18.72381656 20.80248814 26.79199219 32.73413086 C30.30878847 37.9189728 33.9490849 42.97401126 37.7487793 47.95458984 C42.70025728 54.44738075 47.32210715 61.1236712 51.89331055 67.88818359 C55.37823261 73.01991846 58.98758011 78.02235767 62.7487793 82.95458984 C67.10538425 88.66760478 71.22599144 94.50196316 75.2487793 100.45458984 C79.79804098 107.18321164 84.50854325 113.74397351 89.41381836 120.21679688 C92.82565912 124.71900794 96.19311209 129.24871829 99.4987793 133.82958984 C99.92956787 134.41909424 100.36035645 135.00859863 100.80419922 135.6159668 C103.7487793 139.72032971 103.7487793 139.72032971 103.7487793 141.95458984 C106.66749863 140.18712321 109.58338074 138.41502777 112.4987793 136.64208984 C113.3237793 136.14257812 114.1487793 135.64306641 114.9987793 135.12841797 C115.79799805 134.64179688 116.5972168 134.15517578 117.4206543 133.65380859 C118.15380859 133.2086792 118.88696289 132.7635498 119.64233398 132.30493164 C121.80097635 130.96613133 121.80097635 130.96613133 123.89428711 129.28588867 C125.7487793 127.95458984 125.7487793 127.95458984 127.7487793 127.95458984 C128.72134873 137.77813775 129.06719095 147.59272005 129.3112793 157.45458984 C129.33245819 158.26631653 129.35363708 159.07804321 129.37545776 159.91436768 C129.83941939 177.92784794 129.85461477 195.93650692 129.7487793 213.95458984 C126.08960769 213.33357926 122.93321501 212.31872909 119.52563477 210.85668945 C117.99650955 210.20481911 117.99650955 210.20481911 116.43649292 209.53977966 C115.3407193 209.06694046 114.24494568 208.59410126 113.1159668 208.10693359 C111.96951691 207.6168129 110.82306702 207.1266922 109.64187622 206.62171936 C106.58663084 205.31465012 103.53318969 204.00353505 100.48059082 202.69030762 C97.44500295 201.38535008 94.40736428 200.08518766 91.36987305 198.78466797 C87.82408693 197.26648166 84.27843136 195.74800199 80.73358154 194.22763062 C71.0901678 190.09303775 61.42658105 186.00795969 51.7487793 181.95458984 C53.14091579 178.63683553 54.60568151 177.03745486 57.55737305 175.00927734 C58.30438477 174.48978516 59.05139648 173.97029297 59.82104492 173.43505859 C60.60157227 172.90525391 61.38209961 172.37544922 62.1862793 171.82958984 C62.96293945 171.29205078 63.73959961 170.75451172 64.53979492 170.20068359 C67.59233016 168.09204168 70.66182839 166.01255712 73.7487793 163.95458984 C73.13569544 160.70379862 72.03100599 158.67076542 70.0456543 156.04052734 C69.20357422 154.91324219 69.20357422 154.91324219 68.34448242 153.76318359 C67.73540039 152.96009766 67.12631836 152.15701172 66.4987793 151.32958984 C65.21151153 149.60884091 63.92507173 147.88747231 62.6394043 146.16552734 C61.98649414 145.29379883 61.33358398 144.42207031 60.66088867 143.52392578 C57.81380548 139.69824862 55.0297192 135.8284718 52.2487793 131.95458984 C47.7894354 125.75743338 43.28627928 119.59473883 38.7487793 113.45458984 C34.21126666 107.31442374 29.7093649 101.15086462 25.2487793 94.95458984 C19.10080162 86.42302549 12.90693203 77.92720053 6.6315918 69.48876953 C5.3238769 67.72864496 4.01941971 65.96609721 2.7175293 64.20166016 C0.63394871 61.38241236 -1.4633131 58.57381607 -3.5637207 55.76708984 C-4.19705322 54.90623779 -4.83038574 54.04538574 -5.48291016 53.15844727 C-11.62494025 45.00812396 -18.58594583 38.37171009 -27.5637207 33.45458984 C-28.15733398 33.10912109 -28.75094727 32.76365234 -29.36254883 32.40771484 C-32.68400001 30.54148141 -34.33895776 29.95458984 -38.2512207 29.95458984 C-40.07867177 32.49588597 -41.60358621 34.94132715 -43.13012695 37.65771484 C-44.10796257 39.326139 -45.09007437 40.99206259 -46.07592773 42.65576172 C-46.59278137 43.52934326 -47.10963501 44.4029248 -47.64215088 45.30297852 C-50.27960677 49.64928333 -53.11379948 53.85661604 -55.96606445 58.06396484 C-56.83619675 59.3500766 -56.83619675 59.3500766 -57.72390747 60.66217041 C-59.54257338 63.34498416 -61.36567051 66.02475397 -63.1887207 68.70458984 C-65.12692147 71.56373159 -67.06357246 74.42391845 -69.00003052 77.28424072 C-70.28401714 79.18080393 -71.56841685 81.07708754 -72.85324097 82.9730835 C-78.19335379 90.85668278 -83.48269651 98.77304406 -88.7512207 106.70458984 C-98.4198026 121.2483305 -108.21049314 135.70817361 -118.02667236 150.15258789 C-119.212944 151.8982632 -120.39888807 153.64416053 -121.5847168 155.39013672 C-130.26273982 168.16606252 -138.95078641 180.9352173 -147.66137695 193.68896484 C-150.09602275 197.25509454 -152.51907817 200.82875111 -154.93481445 204.40771484 C-155.52488281 205.2786377 -156.11495117 206.14956055 -156.72290039 207.046875 C-157.83253362 208.68479975 -158.93888275 210.32495626 -160.04125977 211.96777344 C-162.53063892 215.63390589 -164.93788013 218.96546637 -168.2512207 221.95458984 C-169.28118164 221.22755859 -170.31114258 220.50052734 -171.37231445 219.75146484 C-172.39240601 219.03144287 -172.39240601 219.03144287 -173.43310547 218.296875 C-174.95323297 217.22378575 -176.47325022 216.15054029 -177.99316406 215.07714844 C-181.95425689 212.28007703 -185.91698339 209.48539495 -189.8840332 206.69677734 C-190.6272583 206.17374023 -191.3704834 205.65070313 -192.13623047 205.11181641 C-193.54488027 204.12059697 -194.95417985 203.13030001 -196.36425781 202.14111328 C-201.06124269 198.83375181 -205.67291277 195.42422536 -210.2512207 191.95458984 C-209.63607295 188.47529846 -208.30724354 186.40739628 -206.14575195 183.63818359 C-205.17605469 182.38328125 -205.17605469 182.38328125 -204.18676758 181.10302734 C-203.48616211 180.20841797 -202.78555664 179.31380859 -202.0637207 178.39208984 C-200.58976295 176.48554325 -199.11713109 174.57797095 -197.64575195 172.66943359 C-196.53321045 171.22866455 -196.53321045 171.22866455 -195.39819336 169.75878906 C-192.29056288 165.69985755 -189.26658063 161.58227671 -186.2512207 157.45458984 C-180.66565093 149.8264343 -174.95843856 142.29811969 -169.2121582 134.79052734 C-164.83057745 129.05556257 -160.51579113 123.27699421 -156.2512207 117.45458984 C-150.6645965 109.82718968 -144.95845732 102.2981442 -139.2121582 94.79052734 C-134.83057745 89.05556257 -130.51579113 83.27699421 -126.2512207 77.45458984 C-121.32556742 70.72961116 -116.31738033 64.07433939 -111.2512207 57.45458984 C-102.07553902 45.45426348 -93.01309565 33.37605718 -84.36474609 20.98852539 C-75.34942591 8.07645262 -75.34942591 8.07645262 -70.2512207 2.95458984 C-69.60282227 2.28298828 -68.95442383 1.61138672 -68.28637695 0.91943359 C-48.3389388 -18.37872086 -20.61352799 -16.58843442 0 0 Z M-71.45825195 5.82568359 C-76.56511587 11.35309081 -76.56511587 11.35309081 -79.2512207 17.95458984 C-78.17227539 18.04095703 -77.09333008 18.12732422 -75.98168945 18.21630859 C-49.79182498 20.56471174 -25.42469896 28.06804807 -7.2512207 47.95458984 C-4.9564483 50.79654836 -2.81662623 53.73639642 -0.6887207 56.70458984 C0.54158509 58.39741662 1.77205857 60.09012154 3.00268555 61.78271484 C3.6241748 62.641875 4.24566406 63.50103516 4.88598633 64.38623047 C7.81641837 68.42661645 10.78360795 72.43967105 13.7487793 76.45458984 C14.91431038 78.03649843 16.07967456 79.61853001 17.24487305 81.20068359 C19.58889947 84.38209595 21.93548811 87.56159601 24.28393555 90.73974609 C30.52287609 99.18716117 36.71936927 107.66217393 42.85449219 116.18530273 C46.78277126 121.63566361 50.7562245 127.05117785 54.7487793 132.45458984 C59.51995932 138.91840278 64.27717639 145.39194593 68.9987793 151.89208984 C69.54791992 152.64361328 70.09706055 153.39513672 70.6628418 154.16943359 C71.17073242 154.87068359 71.67862305 155.57193359 72.2019043 156.29443359 C72.64695312 156.90665771 73.09200195 157.51888184 73.55053711 158.1496582 C74.79268013 160.02071838 75.78646405 161.92741298 76.7487793 163.95458984 C76.18892334 164.32745117 75.62906738 164.7003125 75.05224609 165.08447266 C72.50880686 166.78414314 69.97253454 168.49421989 67.4362793 170.20458984 C66.55520508 170.79111328 65.67413086 171.37763672 64.76635742 171.98193359 C63.49501953 172.84238281 63.49501953 172.84238281 62.19799805 173.72021484 C61.4177124 174.24389648 60.63742676 174.76757812 59.83349609 175.30712891 C57.69400942 176.99787209 56.27580308 178.70783597 54.7487793 180.95458984 C65.86660783 186.26402583 77.13015883 191.14677734 88.4987793 195.89208984 C90.10045938 196.56303318 91.7020222 197.23425651 93.3034668 197.90576172 C95.69615396 198.90898898 98.08912801 199.9114887 100.48327637 200.91122437 C104.70008169 202.67247181 108.91080166 204.44676143 113.11401367 206.24023438 C113.98689026 206.61152969 114.85976685 206.98282501 115.75909424 207.3653717 C117.43950569 208.08072787 119.11871746 208.79891039 120.79656982 209.52024841 C124.63555628 211.30423376 124.63555628 211.30423376 128.7487793 211.95458984 C128.80703268 201.64460877 128.64160994 191.35702444 128.3112793 181.05224609 C128.26623773 179.59395456 128.22140134 178.13565668 128.17675781 176.67735291 C128.06042063 172.89467951 127.94135362 169.11209714 127.82165527 165.32952881 C127.69931216 161.44744026 127.57963737 157.56526947 127.4597168 153.68310547 C127.22530236 146.10685214 126.98799481 138.53069326 126.7487793 130.95458984 C123.55422856 132.2017027 120.72518877 133.47488729 117.8659668 135.37255859 C117.17374023 135.82179687 116.48151367 136.27103516 115.76831055 136.73388672 C114.32778021 137.67980873 112.89031117 138.63040782 111.45581055 139.58544922 C110.76616211 140.03082031 110.07651367 140.47619141 109.3659668 140.93505859 C108.74318848 141.34651123 108.12041016 141.75796387 107.47875977 142.18188477 C105.7487793 142.95458984 105.7487793 142.95458984 102.7487793 141.95458984 C101.51293945 140.56616211 101.51293945 140.56616211 100.2878418 138.77099609 C99.82313477 138.10003906 99.35842773 137.42908203 98.87963867 136.73779297 C98.38270508 136.00496094 97.88577148 135.27212891 97.3737793 134.51708984 C96.29408491 132.95517612 95.21332043 131.39400166 94.1315918 129.83349609 C93.57375 129.02541504 93.0159082 128.21733398 92.44116211 127.38476562 C89.76179643 123.53733256 87.00537268 119.74687593 84.2487793 115.95458984 C79.53731276 109.45478342 74.8857921 102.91593523 70.26831055 96.34912109 C66.63423363 91.18892264 62.95206529 86.06530044 59.2487793 80.95458984 C54.53837273 74.45400501 49.88580322 67.91595104 45.26831055 61.34912109 C41.10083694 55.43152734 36.86620733 49.56422757 32.61743164 43.70483398 C29.35143709 39.1941141 26.12237844 34.65985949 22.92382812 30.10107422 C11.08890876 13.23505588 -2.71485296 -6.38194477 -24.2512207 -11.04541016 C-43.01062744 -12.18973397 -58.09587445 -8.25302755 -71.45825195 5.82568359 Z M-89.2512207 29.95458984 C-90.37324538 31.52700471 -91.49540166 33.09933557 -92.62304688 34.66772461 C-93.43261158 35.79766248 -94.23729465 36.93111048 -95.03759766 38.06762695 C-98.89145735 43.52925852 -102.93533384 48.83716296 -107.0012207 54.14208984 C-112.15232477 60.86501376 -117.24806003 67.620812 -122.2512207 74.45458984 C-127.8376683 82.08211674 -133.54398717 89.61103952 -139.2902832 97.11865234 C-144.25740898 103.62002547 -149.12664035 110.18714255 -153.95996094 116.78833008 C-158.33904677 122.75417595 -162.81199331 128.64340744 -167.3137207 134.51708984 C-172.76582954 141.63396473 -178.08682573 148.82524657 -183.2980957 156.11987305 C-188.34278899 163.15099255 -193.59106785 170.02186773 -198.87231445 176.87646484 C-205.07939033 183.79536767 -205.07939033 183.79536767 -208.2512207 191.95458984 C-206.73912295 193.25814389 -206.73912295 193.25814389 -204.7277832 194.53662109 C-203.57934937 195.3076416 -203.57934937 195.3076416 -202.40771484 196.09423828 C-201.57232178 196.6462793 -200.73692871 197.19832031 -199.8762207 197.76708984 C-192.12186453 202.96266302 -184.5181767 208.3155028 -177.04077148 213.90307617 C-175.98672119 214.67880981 -175.98672119 214.67880981 -174.91137695 215.47021484 C-174.29915283 215.92686523 -173.68692871 216.38351563 -173.05615234 216.85400391 C-171.12934895 218.02890309 -169.45589182 218.52550706 -167.2512207 218.95458984 C-161.77598494 211.55234612 -156.56369201 204.01879142 -151.5012207 196.32958984 C-146.31523568 188.49745988 -141.07514349 180.72075326 -135.58422852 173.09863281 C-131.994166 168.0928664 -128.5805303 162.97707695 -125.17222595 157.84684753 C-121.21152867 151.88599148 -117.20341218 145.95837036 -113.18304443 140.03765869 C-110.91842971 136.70155363 -108.65728172 133.36309911 -106.39575195 130.02490234 C-105.66497437 128.94624405 -105.66497437 128.94624405 -104.91943359 127.84579468 C-103.89687442 126.33638995 -102.87435342 124.82695935 -101.85186768 123.31750488 C-100.76532513 121.71352363 -99.67869284 120.10960317 -98.59197998 118.5057373 C-84.36240271 97.50238134 -70.20055066 76.45791448 -56.2512207 55.26708984 C-55.38880768 53.95747284 -55.38880768 53.95747284 -54.50897217 52.62139893 C-52.87992516 50.14618074 -51.25259902 47.66984344 -49.6262207 45.19287109 C-49.15354767 44.47391159 -48.68087463 43.75495209 -48.19387817 43.01420593 C-46.87289909 40.99862605 -45.5600156 38.97809944 -44.2512207 36.95458984 C-43.77458984 36.22243256 -43.29795898 35.49027527 -42.80688477 34.7359314 C-42.34765625 34.01942413 -41.88842773 33.30291687 -41.4152832 32.56469727 C-40.79194092 31.59725838 -40.79194092 31.59725838 -40.15600586 30.61027527 C-39.09137408 28.97654611 -39.09137408 28.97654611 -39.2512207 26.95458984 C-49.14490525 23.40409028 -58.82648643 20.54500031 -69.2512207 18.95458984 C-70.26442383 18.76767578 -71.27762695 18.58076172 -72.3215332 18.38818359 C-81.45465292 17.38328602 -84.51283252 22.91374544 -89.2512207 29.95458984 Z " fill="#085F6A" transform="translate(336.251220703125,13.04541015625)"/>
<path d="M0 0 C0.70991775 9.87264759 1.24897491 19.7306117 1.5625 29.625 C1.6049585 30.93863525 1.64741699 32.25227051 1.69116211 33.60571289 C2.11179896 47.40365537 2.10093595 61.19662116 2 75 C-3.00784154 73.07271218 -7.49110251 70.47347974 -12.09179688 67.74609375 C-15.32813003 65.68685293 -15.32813003 65.68685293 -19 65 C-19.31638428 65.5576001 -19.63276855 66.1152002 -19.95874023 66.68969727 C-25.38602936 76.24561329 -30.81636834 85.79457402 -36.50268555 95.19921875 C-39.78739055 100.6327622 -43.02279409 106.09462856 -46.25 111.5625 C-46.80381348 112.50061523 -47.35762695 113.43873047 -47.92822266 114.40527344 C-49.06020927 116.32315326 -50.19204431 118.24112256 -51.32373047 120.15917969 C-53.98512693 124.66952184 -56.64857333 129.1786519 -59.3125 133.6875 C-59.84069336 134.58154541 -60.36888672 135.47559082 -60.91308594 136.39672852 C-65.61080947 144.34602187 -70.31846456 152.28941928 -75.0269165 160.23236084 C-78.50353391 166.09743076 -81.97934923 171.96296603 -85.44921875 177.83203125 C-85.98973877 178.74621826 -86.53025879 179.66040527 -87.0871582 180.60229492 C-88.14849612 182.39968809 -89.20824694 184.19801943 -90.26635742 185.99731445 C-92.94595272 190.55000064 -95.65384694 195.08160389 -98.4140625 199.5859375 C-108.62817461 216.34991279 -115.10539455 232.13726258 -121 251 C-32.89 251 55.22 251 146 251 C146 266.18 146 281.36 146 297 C126.8864621 297.01318984 107.77295534 297.01148225 88.65941811 297.00136471 C85.92847828 296.9999633 83.19753842 296.99872765 80.46659851 296.99750519 C55.15735214 296.98558803 29.84831041 296.94749293 4.53918076 296.86790657 C-6.76524448 296.83293952 -18.06954086 296.80784067 -29.37402344 296.80444336 C-39.41606188 296.80140305 -49.45788709 296.78097639 -59.499843 296.73947543 C-64.76432136 296.71829304 -70.02849708 296.70547429 -75.29301834 296.71384621 C-80.1974064 296.72138494 -85.10116839 296.70557164 -90.00544167 296.67193985 C-91.79443708 296.66373037 -93.58349505 296.66392845 -95.37248421 296.67340279 C-109.44597282 296.74056463 -118.27792339 294.26285803 -128.6796875 284.3828125 C-141.07377744 271.65487502 -147.18816723 254.69118904 -148 237 C-148.0515625 236.27425781 -148.103125 235.54851562 -148.15625 234.80078125 C-149.06750046 211.82967601 -137.22964265 193.20759691 -125.91015625 174.22363281 C-122.72297177 168.84485164 -119.61444487 163.42111098 -116.5 158 C-111.69252669 149.65141825 -106.86093901 141.31756103 -102 133 C-97.16323551 124.7222289 -92.35139713 116.43055903 -87.5625 108.125 C-86.94205811 107.04911621 -86.32161621 105.97323242 -85.68237305 104.86474609 C-82.49741364 99.33942095 -79.31687499 93.81158619 -76.140625 88.28125 C-68.56481436 75.10241595 -60.88486208 61.99653546 -53 49 C-56.34028087 45.32231703 -60.07366412 42.85596568 -64.25 40.25 C-65.22453125 39.63318359 -65.22453125 39.63318359 -66.21875 39.00390625 C-67.8095659 37.99794914 -69.40438433 36.99832638 -71 36 C-70 33 -70 33 -67.18139648 31.3527832 C-65.91623791 30.74177474 -64.6456431 30.14195085 -63.37109375 29.55078125 C-62.68169205 29.22067047 -61.99229034 28.89055969 -61.28199768 28.55044556 C-59.00474165 27.46196554 -56.7212037 26.38737751 -54.4375 25.3125 C-51.24658139 23.79348254 -48.05891259 22.26769719 -44.87109375 20.7421875 C-44.05603363 20.35334885 -43.24097351 19.96451019 -42.4012146 19.56388855 C-36.78807185 16.87944563 -31.21328032 14.12666841 -25.66015625 11.3203125 C-24.55588539 10.7628257 -24.55588539 10.7628257 -23.42930603 10.19407654 C-20.58617183 8.75688717 -17.74414921 7.3176751 -14.90719604 5.86831665 C-12.96145484 4.87466052 -11.0123 3.88800491 -9.0625 2.90234375 C-7.40927734 2.05917603 -7.40927734 2.05917603 -5.72265625 1.19897461 C-3 0 -3 0 0 0 Z M-8.94921875 4.89453125 C-9.55019882 5.19780334 -10.15117889 5.50107544 -10.77037048 5.8135376 C-12.06748056 6.46831831 -13.3637397 7.12478683 -14.65924072 7.78274536 C-18.07166298 9.5152446 -21.49070447 11.23455126 -24.91015625 12.953125 C-25.94079193 13.4713961 -25.94079193 13.4713961 -26.99224854 14.00013733 C-33.16663192 17.09799029 -39.38454361 20.10001843 -45.625 23.0625 C-53.12795306 26.62452113 -60.59955994 30.22816281 -68 34 C-68 34.66 -68 35.32 -68 36 C-66.38641659 37.32378631 -66.38641659 37.32378631 -64.28125 38.6015625 C-63.51425781 39.09140625 -62.74726562 39.58125 -61.95703125 40.0859375 C-60.74080078 40.84777344 -60.74080078 40.84777344 -59.5 41.625 C-58.28376953 42.3984375 -58.28376953 42.3984375 -57.04296875 43.1875 C-55.0325603 44.46470066 -53.01819603 45.73515437 -51 47 C-55.28920679 55.96188571 -59.99209794 64.54505441 -65.078125 73.07421875 C-68.53025442 78.86817866 -71.88718259 84.71640437 -75.25 90.5625 C-83.02308166 104.05935182 -90.87005812 117.51229594 -98.72949219 130.95898438 C-100.46606837 133.93065506 -102.20202654 136.90268519 -103.9375 139.875 C-104.51177734 140.85855469 -105.08605469 141.84210938 -105.67773438 142.85546875 C-110.63273386 151.35133185 -115.54663703 159.87063907 -120.44262695 168.40063477 C-123.46580014 173.65628073 -126.51931284 178.88790001 -129.66015625 184.07421875 C-138.69894454 199.0148925 -146.44205284 213.1560445 -146.3125 231.0625 C-146.30758545 231.88177979 -146.3026709 232.70105957 -146.29760742 233.54516602 C-145.96331822 251.27620794 -141.13186605 269.51930602 -128.50390625 282.58203125 C-124.59443359 286.17781665 -120.75483131 289.56655098 -116 292 C-115.34 291.67 -114.68 291.34 -114 291 C-114.495 289.02 -114.495 289.02 -115 287 C-114.54625 288.134375 -114.0925 289.26875 -113.625 290.4375 C-112.42904194 294.04721692 -112.42904194 294.04721692 -110 295 C-108.59816384 295.09275497 -107.19199349 295.1237399 -105.78709221 295.12304783 C-104.89832764 295.12503888 -104.00956306 295.12702993 -103.09386623 295.12908131 C-101.62015345 295.12471205 -101.62015345 295.12471205 -100.1166687 295.12025452 C-98.55827198 295.12153615 -98.55827198 295.12153615 -96.96839249 295.12284368 C-93.46442547 295.12449934 -89.96050563 295.11897569 -86.45654297 295.11352539 C-83.95381674 295.11324351 -81.45109043 295.11340127 -78.94836426 295.1139679 C-73.54849516 295.11419609 -68.14864143 295.11134774 -62.74877548 295.10573006 C-54.94141796 295.09761304 -47.13406628 295.09499963 -39.32670499 295.09374207 C-26.66067112 295.09155187 -13.99464367 295.08489264 -1.32861328 295.07543945 C10.97737597 295.06626451 23.28336348 295.05918408 35.58935547 295.05493164 C36.3475269 295.05466892 37.10569833 295.05440619 37.88684465 295.05413551 C41.69025747 295.0528305 45.4936703 295.05156678 49.29708314 295.05032361 C80.86472691 295.03995199 112.43236213 295.02205988 144 295 C144 280.81 144 266.62 144 252 C56.22 252 -31.56 252 -122 252 C-117.33203602 233.32814408 -117.33203602 233.32814408 -114.4375 226.75 C-114.10161865 225.97043945 -113.7657373 225.19087891 -113.41967773 224.38769531 C-107.51394095 211.03559475 -99.99590851 198.44943631 -92.41796875 185.9921875 C-89.54768996 181.27046475 -86.74416581 176.50971867 -83.9375 171.75 C-78.96734305 163.327977 -73.98720134 154.91194067 -69 146.5 C-62.51594805 135.56214084 -56.04267592 124.61796293 -49.57666016 113.66943359 C-47.42800057 110.03155129 -45.2786089 106.39410196 -43.12890625 102.75683594 C-42.05160021 100.9335536 -40.97476942 99.10999037 -39.8984375 97.28613281 C-37.06428289 92.48496458 -34.22054509 87.68980073 -31.36328125 82.90234375 C-30.76902344 81.90396484 -30.17476563 80.90558594 -29.5625 79.87695312 C-28.42348246 77.9637596 -27.28169729 76.05221017 -26.13671875 74.14257812 C-25.62367187 73.27955078 -25.110625 72.41652344 -24.58203125 71.52734375 C-24.13061768 70.77187256 -23.6792041 70.01640137 -23.21411133 69.23803711 C-21.93696699 66.88380785 -20.94688861 64.50325923 -20 62 C-19.39937744 62.33322266 -18.79875488 62.66644531 -18.17993164 63.00976562 C-15.47532095 64.50868755 -12.76894014 66.00438406 -10.0625 67.5 C-9.11697266 68.02464844 -8.17144531 68.54929687 -7.19726562 69.08984375 C-6.29814453 69.58613281 -5.39902344 70.08242188 -4.47265625 70.59375 C-3.64000244 71.05458984 -2.80734863 71.51542969 -1.94946289 71.99023438 C-0.21791735 73.07665568 -0.21791735 73.07665568 1 73 C1.18048781 57.77134114 0.61104264 42.58955159 0 27.375 C-0.09667364 24.90365831 -0.19303001 22.43230419 -0.2890625 19.9609375 C-0.52239044 13.97381033 -0.75961014 7.98684757 -1 2 C-4.07523579 2 -6.21947379 3.50876531 -8.94921875 4.89453125 Z " fill="#085D68" transform="translate(148,238)"/>
<path d="M0 0 C5.61 0 11.22 0 17 0 C17.00386719 2.06894531 17.00386719 2.06894531 17.0078125 4.1796875 C17.19240945 15.84788339 18.53758745 25.72801374 22.72265625 36.640625 C24 40 24 40 24 42 C46.77 42 69.54 42 93 42 C93 42.33 93 42.66 93 43 C82.49076633 43.0694474 71.98158706 43.12278448 61.47217083 43.15543652 C56.59244888 43.17110624 51.71288368 43.19236831 46.83325195 43.22631836 C42.12594368 43.25886528 37.41878637 43.27684317 32.71137428 43.28463173 C30.91357864 43.29018364 29.11579146 43.30102494 27.31805992 43.31719017 C24.80389796 43.33890262 22.29036336 43.34196956 19.77612305 43.34057617 C19.02949905 43.351362 18.28287506 43.36214783 17.5136261 43.3732605 C12.47887323 43.34297877 12.47887323 43.34297877 10.07331848 41.62007141 C8.72750084 39.58868863 8.02149627 37.64205917 7.3125 35.3125 C7.06113281 34.50425781 6.80976562 33.69601562 6.55078125 32.86328125 C6.36902344 32.24839844 6.18726563 31.63351562 6 31 C5.34 31 4.68 31 4 31 C0.74368117 20.21628368 -1.59016979 11.30787407 0 0 Z " fill="#19869F" transform="translate(26,490)"/>
<path d="M0 0 C2.00766471 0.17827624 4.00912018 0.43552023 6 0.75 C7.16015625 0.92402344 8.3203125 1.09804688 9.515625 1.27734375 C18.66377888 2.89453832 27.27553474 5.61909261 36 8.75 C34.47146065 13.02186525 32.28490519 16.74326863 29.875 20.5625 C29.50246094 21.15998047 29.12992187 21.75746094 28.74609375 22.37304688 C27.8342952 23.83426251 26.91764024 25.29244585 26 26.75 C25.01773438 26.06164063 25.01773438 26.06164063 24.015625 25.359375 C10.6922316 16.40183933 -0.35864989 15.16099518 -16 15.75 C-15.10474609 14.41582031 -15.10474609 14.41582031 -14.19140625 13.0546875 C-12.91219453 11.12560886 -11.65707307 9.1793277 -10.46484375 7.1953125 C-7.54199342 2.7549721 -5.52426357 0.14775148 0 0 Z " fill="#1C8AA5" transform="translate(261,31.25)"/>
<path d="M0 0 C2.9825904 2.77689451 5.25523291 5.30129784 7 9 C7.05078757 11.70667863 6.93420789 13.97665805 6.5625 16.625 C6.46759277 17.35630127 6.37268555 18.08760254 6.27490234 18.84106445 C5.39842022 24.77644092 3.90395006 30.46333835 2.125 36.1875 C1.88080322 36.97656738 1.63660645 37.76563477 1.38500977 38.57861328 C-0.14651986 43.21446051 -1.85947477 47.18153851 -5 51 C-6.65 51.66 -8.3 52.32 -10 53 C-13.63 48.05 -17.26 43.1 -21 38 C-18.525 35.525 -18.525 35.525 -16 33 C-7.90490654 23.40754821 -2.46504629 12.32523145 0 0 Z " fill="#19879F" transform="translate(595,408)"/>
<path d="M0 0 C1.89825285 0.42687983 3.79353183 0.86699482 5.6875 1.3125 C6.74324219 1.55613281 7.79898437 1.79976562 8.88671875 2.05078125 C12.31556453 3.09621353 15.42846552 4.42846552 18 7 C18.3125 10.3125 18.3125 10.3125 18 14 C17.319375 14.598125 16.63875 15.19625 15.9375 15.8125 C13.7360678 17.82061829 13.7360678 17.82061829 13.95703125 20.46484375 C14.22342553 22.99736538 14.55969922 25.4921999 15 28 C12.125 27.6875 12.125 27.6875 9 27 C6.70366176 23.55549263 6.45983515 21.06187717 6 17 C5.34 17 4.68 17 4 17 C3.67 19.31 3.34 21.62 3 24 C0.69 23.67 -1.62 23.34 -4 23 C-3.32545897 15.1753241 -1.73123042 7.65443386 0 0 Z M6 8 C6 8.99 6 9.98 6 11 C7.65 11 9.3 11 11 11 C10.34 10.01 9.68 9.02 9 8 C8.01 8 7.02 8 6 8 Z " fill="#000000" transform="translate(359,214)"/>
<path d="M0 0 C3.1765155 2.55885971 4.01178714 4.7153761 4.46875 8.73828125 C4.67269771 13.25062429 4.22722907 16.2192925 1.25 19.8125 C-2.25579513 22.71730168 -5.37164621 23.39342697 -9.81640625 23.2421875 C-13.13193058 22.50540432 -14.72124207 20.39455555 -16.75 17.8125 C-18.60243916 14.10762168 -18.2085162 9.85635812 -17.75 5.8125 C-15.9402968 2.59524987 -14.57654453 1.26927461 -11.375 -0.5 C-7.12902386 -1.61204137 -4.06958834 -1.75732224 0 0 Z M-8.75 5.8125 C-9.41 6.4725 -10.07 7.1325 -10.75 7.8125 C-10.74510849 11.34712587 -10.74510849 11.34712587 -9.75 14.8125 C-7.81402968 16.32544288 -7.81402968 16.32544288 -5.75 16.8125 C-4.04264699 15.77681405 -4.04264699 15.77681405 -2.75 13.8125 C-2.98477199 10.16708155 -2.98477199 10.16708155 -3.75 6.8125 C-6.14719432 6.13291397 -6.14719432 6.13291397 -8.75 5.8125 Z " fill="#000000" transform="translate(263.75,214.1875)"/>
<path d="M0 0 C3.37915441 3.53705882 3.72515548 6.80164107 4.06640625 11.5234375 C3.97257121 15.02293246 3.0430205 17.18204069 1 20 C-2.3087862 22.14583413 -5.36302519 22.37150164 -9.25 22.625 C-10.32765625 22.69976562 -11.4053125 22.77453125 -12.515625 22.8515625 C-13.33546875 22.90054688 -14.1553125 22.94953125 -15 23 C-15.33923576 20.64655194 -15.67150534 18.2924516 -16 15.9375 C-16.14308594 14.95233398 -16.14308594 14.95233398 -16.2890625 13.94726562 C-16.88887674 9.59861237 -17.09127093 5.38670929 -17 1 C-10.98617301 -0.68442839 -6.1323004 -1.48021044 0 0 Z M-8 5 C-8.33 5.33 -8.66 5.66 -9 6 C-8.91036938 7.69141656 -8.75422324 9.37959602 -8.5625 11.0625 C-8.46066406 11.98160156 -8.35882813 12.90070313 -8.25390625 13.84765625 C-8.17011719 14.55792969 -8.08632813 15.26820313 -8 16 C-6.68 15.67 -5.36 15.34 -4 15 C-4 12.36 -4 9.72 -4 7 C-5.32 6.34 -6.64 5.68 -8 5 Z " fill="#000000" transform="translate(286,210)"/>
<path d="M0 0 C3.83328206 0.06531149 5.43142743 0.22647791 8.8125 2.1875 C11.79193355 5.66350581 11.96807063 8.81609235 11.91015625 13.30859375 C11.56955963 16.4695694 10.39027003 18.72624663 8.6875 21.375 C4.64264343 24.07157104 1.43442804 23.9172677 -3.3125 23.375 C-7.2092311 21.71681655 -8.72716623 20.23403616 -10.3125 16.375 C-10.9088461 12.04568217 -10.79847728 8.41322419 -8.9375 4.4375 C-5.983604 0.68832431 -4.75322943 0.06431975 0 0 Z M-1.3125 6.375 C-3.11661967 9.13424185 -3.3252245 10.26472103 -2.9375 13.625 C-2.73125 14.5325 -2.525 15.44 -2.3125 16.375 C-0.3325 16.87 -0.3325 16.87 1.6875 17.375 C4.25138043 13.82227895 4.25138043 13.82227895 4.375 9.5625 C4.148125 8.840625 3.92125 8.11875 3.6875 7.375 C2.0375 7.045 0.3875 6.715 -1.3125 6.375 Z " fill="#000000" transform="translate(343.3125,210.625)"/>
<path d="M0 0 C2.62550296 0.97783539 5.25041505 1.9572063 7.875 2.9375 C8.62136719 3.21529297 9.36773437 3.49308594 10.13671875 3.77929688 C15.7734375 5.88671875 15.7734375 5.88671875 18 7 C17.34 8.98 16.68 10.96 16 13 C12.7 12.01 9.4 11.02 6 10 C8.64 11.32 11.28 12.64 14 14 C13.67 15.98 13.34 17.96 13 20 C9.51329166 18.8905928 6.22515763 17.73662334 3 16 C3.66970511 19.06399866 3.66970511 19.06399866 5.84765625 20.16796875 C6.94400391 20.67263672 6.94400391 20.67263672 8.0625 21.1875 C8.79597656 21.53167969 9.52945312 21.87585938 10.28515625 22.23046875 C11.13400391 22.61138672 11.13400391 22.61138672 12 23 C11.67 24.98 11.34 26.96 11 29 C5.08030998 27.24009216 -0.41634992 24.60305395 -6 22 C-5.37798054 19.45757096 -4.75248241 16.91608125 -4.125 14.375 C-3.95097656 13.66214844 -3.77695312 12.94929687 -3.59765625 12.21484375 C-2.57145662 8.07203784 -1.41209271 4.03273322 0 0 Z " fill="#000000" transform="translate(381,221)"/>
<path d="M0 0 C5.61038961 3.22077922 5.61038961 3.22077922 7 6 C7.039992 7.99960012 7.04346799 10.00047242 7 12 C5.68 12 4.36 12 3 12 C3.33 12.33 3.66 12.66 4 13 C4.58076225 20.20145191 4.58076225 20.20145191 2.5 23.0625 C-1.14811364 24.43054262 -4.34295073 24.08840752 -8 23 C-10.76101146 21.17890734 -12.52100548 19.95798903 -14 17 C-14.04022391 14.6670134 -14.04320247 12.33293334 -14 10 C-11.525 10.495 -11.525 10.495 -9 11 C-9.37125 9.9275 -9.7425 8.855 -10.125 7.75 C-11 4 -11 4 -10.25 1.625 C-7.37472884 -2.11285251 -4.21877397 -0.91406769 0 0 Z M-3 5 C-2.34 6.32 -1.68 7.64 -1 9 C-1 8.01 -1 7.02 -1 6 C-1.66 5.67 -2.32 5.34 -3 5 Z M-7 13 C-7 14.32 -7 15.64 -7 17 C-6.01 17.33 -5.02 17.66 -4 18 C-4 16.68 -4 15.36 -4 14 C-4.99 13.67 -5.98 13.34 -7 13 Z " fill="#000000" transform="translate(409,233)"/>
<path d="M0 0 C0.66 0.66 1.32 1.32 2 2 C1.67 3.32 1.34 4.64 1 6 C-3.455 6.495 -3.455 6.495 -8 7 C-7.22914063 7.03738281 -6.45828125 7.07476562 -5.6640625 7.11328125 C-4.66117188 7.17902344 -3.65828125 7.24476563 -2.625 7.3125 C-1.12839844 7.39951172 -1.12839844 7.39951172 0.3984375 7.48828125 C1.68621094 7.74158203 1.68621094 7.74158203 3 8 C5.50031654 11.75047482 5.53603554 13.55856266 5 18 C1.52153373 22.32457969 -0.93132319 23.77432617 -6.4375 24.375 C-10 24 -10 24 -12.4375 21.5 C-12.953125 20.675 -13.46875 19.85 -14 19 C-10.93882432 16.37613513 -10.26826873 16 -6 16 C-6 16.66 -6 17.32 -6 18 C-5.01 17.67 -4.02 17.34 -3 17 C-3 16.34 -3 15.68 -3 15 C-3.61488281 15.02320313 -4.22976562 15.04640625 -4.86328125 15.0703125 C-6.07564453 15.09738281 -6.07564453 15.09738281 -7.3125 15.125 C-8.11300781 15.14820313 -8.91351563 15.17140625 -9.73828125 15.1953125 C-12 15 -12 15 -15 13 C-16 10.25 -16 10.25 -16 7 C-12.10246542 0.08347347 -7.26088262 -0.34575632 0 0 Z " fill="#000000" transform="translate(241,220)"/>
<path d="M0 0 C-0.33 1.65 -0.66 3.3 -1 5 C-4.3 5 -7.6 5 -11 5 C-11 5.99 -11 6.98 -11 8 C-7.7 8 -4.4 8 -1 8 C-1 9.65 -1 11.3 -1 13 C-4.3 13 -7.6 13 -11 13 C-11 13.99 -11 14.98 -11 16 C-7.37 16 -3.74 16 0 16 C0 17.98 0 19.96 0 22 C-5.94 22.33 -11.88 22.66 -18 23 C-18.33 15.41 -18.66 7.82 -19 0 C-6.28571429 -1.28571429 -6.28571429 -1.28571429 0 0 Z " fill="#000000" transform="translate(310,208)"/>
<path d="M0 0 C2.21875 2.23046875 2.21875 2.23046875 4.5 5.1875 C5.2528125 6.15042969 6.005625 7.11335937 6.78125 8.10546875 C7.5134375 9.06066406 8.245625 10.01585937 9 11 C9.7528125 11.90363281 10.505625 12.80726563 11.28125 13.73828125 C13 16 13 16 13 18 C10.09399739 19.25664978 8.20395416 20 5 20 C5 19.34 5 18.68 5 18 C1.98352894 19.21620585 1.98352894 19.21620585 -1 21 C-1.73323796 23.01508358 -1.73323796 23.01508358 -2 25 C-5 27 -5 27 -8 27 C-8.67157021 21.01582978 -9.145373 15.01757827 -9.375 9 C-9.42398438 7.9275 -9.47296875 6.855 -9.5234375 5.75 C-9 3 -9 3 -6.7265625 1.125 C-4 0 -4 0 0 0 Z M-2 10 C-1.67 11.32 -1.34 12.64 -1 14 C-1 12.68 -1 11.36 -1 10 C-1.33 10 -1.66 10 -2 10 Z " fill="#000000" transform="translate(217,229)"/>
<path d="M0 0 C3.1875 2.25 3.1875 2.25 5 5 C4.8125 7.3125 4.8125 7.3125 4 9 C2.02 9 0.04 9 -2 9 C-2.33 8.34 -2.66 7.68 -3 7 C-4.32 6.67 -5.64 6.34 -7 6 C-7 9.3 -7 12.6 -7 16 C-5.68 15.67 -4.36 15.34 -3 15 C-2.67 14.34 -2.34 13.68 -2 13 C0.02045442 13.60183749 2.02111039 14.27306096 4 15 C4.33 15.66 4.66 16.32 5 17 C3.39285211 19.48848705 2.2812868 21.19179111 0 23 C-4.67323207 23.99784315 -8.93172076 23.57080624 -13 21 C-15.81930715 16.2363431 -16.52939348 12.56773389 -15.62109375 7.08984375 C-13.34468213 -0.56978026 -6.94650206 -1.43250288 0 0 Z " fill="#000000" transform="translate(327,208)"/>
<path d="M0 0 C6.15234375 -0.09765625 6.15234375 -0.09765625 8 0 C9 1 9 1 9.125 3.9375 C9 7 9 7 8 9 C8.66 10.32 9.32 11.64 10 13 C11.32 8.71 12.64 4.42 14 0 C15.32 0.33 16.64 0.66 18 1 C18.50471197 2.76949612 19.00360685 4.54065223 19.5 6.3125 C19.7784375 7.29863281 20.056875 8.28476562 20.34375 9.30078125 C21 12 21 12 21 15 C20.01 14.67 19.02 14.34 18 14 C18 13.01 18 12.02 18 11 C16.01508358 11.26676204 16.01508358 11.26676204 14 12 C13.67 12.99 13.34 13.98 13 15 C11.02 15 9.04 15 7 15 C6.67 13.35 6.34 11.7 6 10 C4.68 9.67 3.36 9.34 2 9 C2 10.98 2 12.96 2 15 C1.34 15 0.68 15 0 15 C0 10.05 0 5.1 0 0 Z M2 2 C2 3.65 2 5.3 2 7 C3.32 7 4.64 7 6 7 C6.33 6.01 6.66 5.02 7 4 C6.67 3.34 6.34 2.68 6 2 C4.68 2 3.36 2 2 2 Z M15 5 C14.67 6.32 14.34 7.64 14 9 C14.99 9 15.98 9 17 9 C16.34 7.68 15.68 6.36 15 5 Z " fill="#000000" transform="translate(297,378)"/>
<path d="M0 0 C1.32 0 2.64 0 4 0 C4.66 2.31 5.32 4.62 6 7 C6.99 4.69 7.98 2.38 9 0 C9.99 0 10.98 0 12 0 C13.09506492 3.28519475 13.09960608 5.73663415 13.0625 9.1875 C13.05347656 10.27417969 13.04445312 11.36085938 13.03515625 12.48046875 C13.02355469 13.31191406 13.01195312 14.14335937 13 15 C12.34 15 11.68 15 11 15 C10.67 13.02 10.34 11.04 10 9 C9.01 10.98 8.02 12.96 7 15 C6.34 15 5.68 15 5 15 C4.34 13.02 3.68 11.04 3 9 C2.67 10.98 2.34 12.96 2 15 C1.34 15 0.68 15 0 15 C0 10.05 0 5.1 0 0 Z " fill="#000000" transform="translate(209,378)"/>
<path d="M0 0 C4 1 4 1 5.25 3.0625 C5.4975 3.701875 5.745 4.34125 6 5 C6.66 3.35 7.32 1.7 8 0 C8.99 0 9.98 0 11 0 C11.33 4.29 11.66 8.58 12 13 C11.01 13 10.02 13 9 13 C8.67 12.01 8.34 11.02 8 10 C7.67 10.99 7.34 11.98 7 13 C6.01 13 5.02 13 4 13 C3.67 12.01 3.34 11.02 3 10 C2.67 10.99 2.34 11.98 2 13 C1.34 13 0.68 13 0 13 C0 8.71 0 4.42 0 0 Z " fill="#087834" transform="translate(294,403)"/>
<path d="M0 0 C7.48029197 -0.36788321 7.48029197 -0.36788321 9.73828125 1.23046875 C11.32755028 3.45938166 11.40218928 4.78107208 11.375 7.5 C11.38273437 8.2734375 11.39046875 9.046875 11.3984375 9.84375 C10.90095922 12.53598541 10.22435134 13.42545917 8 15 C5.27492202 15.39078556 2.76878044 15.13616953 0 15 C0 10.05 0 5.1 0 0 Z M2 2 C2 5.63 2 9.26 2 13 C6.86132495 12.50847518 6.86132495 12.50847518 9 10 C8.67673447 6.40320934 8.67673447 6.40320934 8 3 C5.03 2.505 5.03 2.505 2 2 Z " fill="#000000" transform="translate(274,378)"/>
<path d="M0 0 C2.08133467 3.122002 2.2737822 3.93266989 2.25 7.5 C2.25515625 8.2734375 2.2603125 9.046875 2.265625 9.84375 C2 12 2 12 0 15 C-3.5 15.375 -3.5 15.375 -7 15 C-9.06520632 11.90219052 -9.29477024 11.0459519 -9.3125 7.5 C-9.32925781 6.7265625 -9.34601563 5.953125 -9.36328125 5.15625 C-8.46808881 -0.15715031 -4.79210513 -0.6117581 0 0 Z M-5 2 C-7.56687367 5.8503105 -6.83288724 7.58569763 -6 12 C-4.02 12.495 -4.02 12.495 -2 13 C0.56687367 9.1496895 -0.16711276 7.41430237 -1 3 C-2.32 2.67 -3.64 2.34 -5 2 Z " fill="#000000" transform="translate(395,378)"/>
<path d="M0 0 C3 0.4375 3 0.4375 4.875 1.4375 C6.68159223 4.64921951 6.51338313 7.89373032 6 11.4375 C4.875 13.9375 4.875 13.9375 3 15.4375 C-0.12242157 15.89285315 -2.06836961 15.93436954 -4.875 14.4375 C-6.68159223 11.22578049 -6.51338313 7.98126968 -6 4.4375 C-4.45429626 1.0026028 -3.74629661 0.54633492 0 0 Z M-2 2.4375 C-3.80411967 5.19674185 -4.0127245 6.32722103 -3.625 9.6875 C-3.41875 10.595 -3.2125 11.5025 -3 12.4375 C-1.35 12.7675 0.3 13.0975 2 13.4375 C3.80411967 10.67825815 4.0127245 9.54777897 3.625 6.1875 C3.41875 5.28 3.2125 4.3725 3 3.4375 C1.35 3.1075 -0.3 2.7775 -2 2.4375 Z " fill="#000000" transform="translate(230,377.5625)"/>
<path d="M0 0 C3 0.4375 3 0.4375 4.875 1.4375 C6.68159223 4.64921951 6.51338313 7.89373032 6 11.4375 C4.875 13.9375 4.875 13.9375 3 15.4375 C-0.12242157 15.89285315 -2.06836961 15.93436954 -4.875 14.4375 C-6.68159223 11.22578049 -6.51338313 7.98126968 -6 4.4375 C-4.45429626 1.0026028 -3.74629661 0.54633492 0 0 Z M-2 2.4375 C-3.80411967 5.19674185 -4.0127245 6.32722103 -3.625 9.6875 C-3.41875 10.595 -3.2125 11.5025 -3 12.4375 C-1.35 12.7675 0.3 13.0975 2 13.4375 C3.80411967 10.67825815 4.0127245 9.54777897 3.625 6.1875 C3.41875 5.28 3.2125 4.3725 3 3.4375 C1.35 3.1075 -0.3 2.7775 -2 2.4375 Z " fill="#000000" transform="translate(201,377.5625)"/>
<path d="M0 0 C0 8.58 0 17.16 0 26 C9.24 26 18.48 26 28 26 C28 26.33 28 26.66 28 27 C18.1 27 8.2 27 -2 27 C-2 19.08 -2 11.16 -2 3 C-2.66 2.67 -3.32 2.34 -4 2 C-1 0 -1 0 0 0 Z " fill="#0A6471" transform="translate(395,454)"/>
<path d="M0 0 C7 0 7 0 8.9140625 1.21875 C10.27581985 3.45242393 10.40107113 4.89288695 10.375 7.5 C10.38273437 8.2734375 10.39046875 9.046875 10.3984375 9.84375 C10 12 10 12 8.9140625 13.78125 C7 15 7 15 0 15 C0 10.05 0 5.1 0 0 Z M2 2 C2 5.63 2 9.26 2 13 C3.65 12.67 5.3 12.34 7 12 C8.19988045 6.71800407 8.19988045 6.71800407 6 2 C4.68 2 3.36 2 2 2 Z " fill="#000000" transform="translate(335,378)"/>
<path d="M0 0 C1.32 0.33 2.64 0.66 4 1 C4.50471197 2.76949612 5.00360685 4.54065223 5.5 6.3125 C5.7784375 7.29863281 6.056875 8.28476562 6.34375 9.30078125 C7 12 7 12 7 15 C6.01 14.67 5.02 14.34 4 14 C4 13.01 4 12.02 4 11 C2.01508358 11.26676204 2.01508358 11.26676204 0 12 C-0.33 12.99 -0.66 13.98 -1 15 C-1.99 15 -2.98 15 -4 15 C-3.52229477 13.06213915 -3.04278429 11.12472326 -2.5625 9.1875 C-2.29566406 8.10855469 -2.02882813 7.02960938 -1.75390625 5.91796875 C-1.23922588 3.9259157 -0.65062825 1.95188476 0 0 Z M1 5 C0.67 6.32 0.34 7.64 0 9 C0.99 9 1.98 9 3 9 C2.34 7.68 1.68 6.36 1 5 Z " fill="#000000" transform="translate(265,378)"/>
<path d="M0 0 C3 -0.3125 3 -0.3125 6 0 C8 2 8 2 8.265625 4.09375 C8.26046875 4.8878125 8.2553125 5.681875 8.25 6.5 C8.25515625 7.2940625 8.2603125 8.088125 8.265625 8.90625 C8 11 8 11 6 13 C3 13.3125 3 13.3125 0 13 C-2.45811625 9.31282562 -2.31118164 7.35654296 -2 3 C-1.34 2.01 -0.68 1.02 0 0 Z M2 2 C0.78702351 4.2806707 0.78702351 4.2806707 0 7 C0.76603959 9.2857711 0.76603959 9.2857711 2 11 C2.99 11 3.98 11 5 11 C6.04214691 6.38492226 6.04214691 6.38492226 5 2 C4.01 2 3.02 2 2 2 Z " fill="#087834" transform="translate(390,403)"/>
<path d="M0 0 C3 -0.3125 3 -0.3125 6 0 C8 2 8 2 8.265625 4.09375 C8.26046875 4.8878125 8.2553125 5.681875 8.25 6.5 C8.25515625 7.2940625 8.2603125 8.088125 8.265625 8.90625 C8 11 8 11 6 13 C3 13.3125 3 13.3125 0 13 C-2.45811625 9.31282562 -2.31118164 7.35654296 -2 3 C-1.34 2.01 -0.68 1.02 0 0 Z M2 2 C0.78702351 4.2806707 0.78702351 4.2806707 0 7 C0.76603959 9.2857711 0.76603959 9.2857711 2 11 C2.99 11 3.98 11 5 11 C6.04214691 6.38492226 6.04214691 6.38492226 5 2 C4.01 2 3.02 2 2 2 Z " fill="#087834" transform="translate(310,403)"/>
<path d="M0 0 C3 0.25 3 0.25 5 2.25 C5.265625 4.34375 5.265625 4.34375 5.25 6.75 C5.25515625 7.5440625 5.2603125 8.338125 5.265625 9.15625 C5 11.25 5 11.25 3 13.25 C0 13.5 0 13.5 -3 13.25 C-5 11.25 -5 11.25 -5.265625 9.15625 C-5.25789062 7.96515625 -5.25789062 7.96515625 -5.25 6.75 C-5.25515625 5.9559375 -5.2603125 5.161875 -5.265625 4.34375 C-4.80957894 0.74903399 -3.45860435 0.28821703 0 0 Z M-1 2.25 C-3.28728734 4.08883881 -3.28728734 4.08883881 -3.125 6.875 C-3.08375 7.65875 -3.0425 8.4425 -3 9.25 C-1.02 10.24 -1.02 10.24 1 11.25 C3.28728734 9.41116119 3.28728734 9.41116119 3.125 6.625 C3.08375 5.84125 3.0425 5.0575 3 4.25 C1.68 3.59 0.36 2.93 -1 2.25 Z " fill="#087834" transform="translate(237,402.75)"/>
<path d="M0 0 C2.33294775 -0.04241723 4.66702567 -0.04092937 7 0 C8 1 8 1 8.09765625 3.72265625 C8.08605469 4.82480469 8.07445312 5.92695313 8.0625 7.0625 C8.05347656 8.16722656 8.04445313 9.27195312 8.03515625 10.41015625 C8.02355469 11.26480469 8.01195312 12.11945313 8 13 C7.01 12.67 6.02 12.34 5 12 C4.67 11.01 4.34 10.02 4 9 C3.34 8.67 2.68 8.34 2 8 C2 9.65 2 11.3 2 13 C1.34 13 0.68 13 0 13 C0 8.71 0 4.42 0 0 Z M2 2 C2 3.32 2 4.64 2 6 C2.99 6 3.98 6 5 6 C5.33 5.01 5.66 4.02 6 3 C4.68 2.67 3.36 2.34 2 2 Z " fill="#087834" transform="translate(378,403)"/>
<path d="M0 0 C0 1.32 0 2.64 0 4 C-1.65 4 -3.3 4 -5 4 C-5 5.32 -5 6.64 -5 8 C-3.35 8 -1.7 8 0 8 C0 8.66 0 9.32 0 10 C-1.65 10 -3.3 10 -5 10 C-5 11.65 -5 13.3 -5 15 C-3.35 15 -1.7 15 0 15 C0 15.66 0 16.32 0 17 C-2.31 17 -4.62 17 -7 17 C-7.1079859 14.56131832 -7.18726589 12.12740867 -7.25 9.6875 C-7.28351563 8.99720703 -7.31703125 8.30691406 -7.3515625 7.59570312 C-7.41575174 4.2739102 -7.43428527 2.48532306 -5.171875 -0.04296875 C-3 -1 -3 -1 0 0 Z " fill="#000000" transform="translate(407,376)"/>
<path d="M0 0 C1.98 0 3.96 0 6 0 C7.89092493 1.89092493 7 5.47272105 7 8 C7.28520405 9.67557379 7.59955696 11.34817245 8 13 C7.01 13 6.02 13 5 13 C4.34 11.68 3.68 10.36 3 9 C2.67 10.32 2.34 11.64 2 13 C1.34 13 0.68 13 0 13 C0 8.71 0 4.42 0 0 Z M2 2 C2 3.32 2 4.64 2 6 C2.99 5.67 3.98 5.34 5 5 C4.67 4.01 4.34 3.02 4 2 C3.34 2 2.68 2 2 2 Z " fill="#087834" transform="translate(202,403)"/>
<path d="M0 0 C1.4540625 0.0309375 1.4540625 0.0309375 2.9375 0.0625 C2.9375 1.0525 2.9375 2.0425 2.9375 3.0625 C1.6175 3.3925 0.2975 3.7225 -1.0625 4.0625 C-0.2375 4.59875 0.5875 5.135 1.4375 5.6875 C3.9375 8.0625 3.9375 8.0625 4.3125 11.25 C3.9375 14.0625 3.9375 14.0625 2.9375 15.0625 C0.60452567 15.10342937 -1.72955225 15.10491723 -4.0625 15.0625 C-3.7325 14.0725 -3.4025 13.0825 -3.0625 12.0625 C-1.7425 12.0625 -0.4225 12.0625 0.9375 12.0625 C0.9375 11.4025 0.9375 10.7425 0.9375 10.0625 C0.1125 9.464375 -0.7125 8.86625 -1.5625 8.25 C-4.0625 6.0625 -4.0625 6.0625 -4.4375 3.375 C-3.86843225 -0.13425111 -3.67270031 0.07495307 0 0 Z " fill="#000000" transform="translate(366.0625,377.9375)"/>
<path d="M0 0 C1.4540625 0.0309375 1.4540625 0.0309375 2.9375 0.0625 C2.9375 1.0525 2.9375 2.0425 2.9375 3.0625 C1.6175 3.3925 0.2975 3.7225 -1.0625 4.0625 C-0.2375 4.59875 0.5875 5.135 1.4375 5.6875 C3.9375 8.0625 3.9375 8.0625 4.3125 11.25 C3.9375 14.0625 3.9375 14.0625 2.9375 15.0625 C0.60452567 15.10342937 -1.72955225 15.10491723 -4.0625 15.0625 C-3.7325 14.0725 -3.4025 13.0825 -3.0625 12.0625 C-1.7425 12.0625 -0.4225 12.0625 0.9375 12.0625 C0.9375 11.4025 0.9375 10.7425 0.9375 10.0625 C0.1125 9.464375 -0.7125 8.86625 -1.5625 8.25 C-4.0625 6.0625 -4.0625 6.0625 -4.4375 3.375 C-3.86843225 -0.13425111 -3.67270031 0.07495307 0 0 Z " fill="#000000" transform="translate(242.0625,377.9375)"/>
<path d="M0 0 C0.99 0 1.98 0 3 0 C4.32 4.29 5.64 8.58 7 13 C6.01 13 5.02 13 4 13 C3.67 11.68 3.34 10.36 3 9 C2.01 9 1.02 9 0 9 C-0.33 10.32 -0.66 11.64 -1 13 C-1.66 13 -2.32 13 -3 13 C-2.45144652 8.428721 -1.58255197 4.32564205 0 0 Z M1 4 C2 7 2 7 2 7 Z " fill="#087834" transform="translate(285,403)"/>
<path d="M0 0 C1.4540625 0.0309375 1.4540625 0.0309375 2.9375 0.0625 C2.6075 1.0525 2.2775 2.0425 1.9375 3.0625 C0.9475 3.0625 -0.0425 3.0625 -1.0625 3.0625 C-1.0625 3.7225 -1.0625 4.3825 -1.0625 5.0625 C-0.4025 5.475 0.2575 5.8875 0.9375 6.3125 C2.9375 8.0625 2.9375 8.0625 3.25 11.1875 C2.9375 14.0625 2.9375 14.0625 1.9375 15.0625 C-0.39547433 15.10342937 -2.72955225 15.10491723 -5.0625 15.0625 C-4.7325 14.0725 -4.4025 13.0825 -4.0625 12.0625 C-2.7425 12.0625 -1.4225 12.0625 -0.0625 12.0625 C-0.81400023 8.78476496 -0.81400023 8.78476496 -4.0625 7.0625 C-4.3125 4 -4.3125 4 -4.0625 1.0625 C-3.0625 0.0625 -3.0625 0.0625 0 0 Z " fill="#000000" transform="translate(324.0625,377.9375)"/>
<path d="M0 0 C1.4540625 0.0309375 1.4540625 0.0309375 2.9375 0.0625 C2.6075 1.0525 2.2775 2.0425 1.9375 3.0625 C0.9475 3.0625 -0.0425 3.0625 -1.0625 3.0625 C-1.0625 3.7225 -1.0625 4.3825 -1.0625 5.0625 C-0.4025 5.475 0.2575 5.8875 0.9375 6.3125 C2.9375 8.0625 2.9375 8.0625 3.25 11.1875 C2.9375 14.0625 2.9375 14.0625 1.9375 15.0625 C-0.39547433 15.10342937 -2.72955225 15.10491723 -5.0625 15.0625 C-4.7325 14.0725 -4.4025 13.0825 -4.0625 12.0625 C-2.7425 12.0625 -1.4225 12.0625 -0.0625 12.0625 C-0.81400023 8.78476496 -0.81400023 8.78476496 -4.0625 7.0625 C-4.3125 4 -4.3125 4 -4.0625 1.0625 C-3.0625 0.0625 -3.0625 0.0625 0 0 Z " fill="#000000" transform="translate(190.0625,377.9375)"/>
<path d="M0 0 C2.31 0 4.62 0 7 0 C7 0.66 7 1.32 7 2 C5.35 2 3.7 2 2 2 C2 3.32 2 4.64 2 6 C3.65 6 5.3 6 7 6 C7 6.66 7 7.32 7 8 C5.35 8 3.7 8 2 8 C2 9.65 2 11.3 2 13 C3.98 13 5.96 13 8 13 C8 13.66 8 14.32 8 15 C5.36 15 2.72 15 0 15 C0 10.05 0 5.1 0 0 Z " fill="#000000" transform="translate(287,378)"/>
<path d="M0 0 C0.66 0 1.32 0 2 0 C2.33 3.3 2.66 6.6 3 10 C3.66 10 4.32 10 5 10 C5.33 6.7 5.66 3.4 6 0 C6.66 0 7.32 0 8 0 C8.02686553 1.97909398 8.04633375 3.95828971 8.0625 5.9375 C8.07410156 7.03964844 8.08570313 8.14179688 8.09765625 9.27734375 C8 12 8 12 7 13 C4 13.125 4 13.125 1 13 C0 12 0 12 -0.09765625 9.27734375 C-0.08605469 8.17519531 -0.07445312 7.07304687 -0.0625 5.9375 C-0.05347656 4.83277344 -0.04445313 3.72804688 -0.03515625 2.58984375 C-0.02355469 1.73519531 -0.01195312 0.88054687 0 0 Z " fill="#087834" transform="translate(367,403)"/>
<path d="M0 0 C0.66 0 1.32 0 2 0 C2.33 3.63 2.66 7.26 3 11 C3.99 11 4.98 11 6 11 C6.33 7.37 6.66 3.74 7 0 C7.66 0 8.32 0 9 0 C9.05391993 1.79133978 9.09275571 3.58313899 9.125 5.375 C9.14820313 6.37273437 9.17140625 7.37046875 9.1953125 8.3984375 C9 11 9 11 7 13 C4.5 13.25 4.5 13.25 2 13 C0 11 0 11 -0.1953125 8.3984375 C-0.17210937 7.40070313 -0.14890625 6.40296875 -0.125 5.375 C-0.10695313 4.37210937 -0.08890625 3.36921875 -0.0703125 2.3359375 C-0.04710937 1.56507813 -0.02390625 0.79421875 0 0 Z " fill="#087834" transform="translate(345,403)"/>
<path d="M0 0 C2.31 0 4.62 0 7 0 C7 0.66 7 1.32 7 2 C5.35 2 3.7 2 2 2 C2 3.32 2 4.64 2 6 C3.65 6 5.3 6 7 6 C7 6.66 7 7.32 7 8 C5.35 8 3.7 8 2 8 C2 9.65 2 11.3 2 13 C3.65 13 5.3 13 7 13 C7 13.66 7 14.32 7 15 C4.69 15 2.38 15 0 15 C0 10.05 0 5.1 0 0 Z " fill="#000000" transform="translate(348,378)"/>
<path d="M0 0 C1.2065625 0.0309375 1.2065625 0.0309375 2.4375 0.0625 C2.7675 0.7225 3.0975 1.3825 3.4375 2.0625 C1.7875 2.0625 0.1375 2.0625 -1.5625 2.0625 C-0.7375 2.784375 0.0875 3.50625 0.9375 4.25 C3.4375 7.0625 3.4375 7.0625 3.8125 9.8125 C3.4375 12.0625 3.4375 12.0625 2.4375 13.0625 C0.10452567 13.10342937 -2.22955225 13.10491723 -4.5625 13.0625 C-4.2325 12.0725 -3.9025 11.0825 -3.5625 10.0625 C-1.5 9.375 -1.5 9.375 0.4375 9.0625 C-0.5525 8.4746875 -0.5525 8.4746875 -1.5625 7.875 C-3.5625 6.0625 -3.5625 6.0625 -3.875 3.4375 C-3.44213713 0.1477422 -3.34981931 0.08170291 0 0 Z " fill="#087834" transform="translate(324.5625,402.9375)"/>
<path d="M0 0 C2.31 0 4.62 0 7 0 C7 0.66 7 1.32 7 2 C5.35 2 3.7 2 2 2 C2 3.32 2 4.64 2 6 C3.65 6 5.3 6 7 6 C7 6.66 7 7.32 7 8 C5.35 8 3.7 8 2 8 C2 8.99 2 9.98 2 11 C3.65 11 5.3 11 7 11 C7 11.66 7 12.32 7 13 C4.69 13 2.38 13 0 13 C0 8.71 0 4.42 0 0 Z " fill="#087834" transform="translate(254,403)"/>
<path d="M0 0 C2.31 0 4.62 0 7 0 C7 0.66 7 1.32 7 2 C5.35 2 3.7 2 2 2 C2 3.32 2 4.64 2 6 C3.65 6 5.3 6 7 6 C7 6.66 7 7.32 7 8 C5.35 8 3.7 8 2 8 C2 8.99 2 9.98 2 11 C3.65 11 5.3 11 7 11 C7 11.66 7 12.32 7 13 C4.69 13 2.38 13 0 13 C0 8.71 0 4.42 0 0 Z " fill="#087834" transform="translate(212,403)"/>
<path d="M0 0 C0 0.66 0 1.32 0 2 C-1.65 2.33 -3.3 2.66 -5 3 C-5.93423645 6.01031744 -6.04449911 6.86650268 -5 10 C-3.35 10.33 -1.7 10.66 0 11 C0 11.66 0 12.32 0 13 C-3.375 13.1875 -3.375 13.1875 -7 13 C-9.46324069 9.30513897 -9.38991688 7.36706908 -9 3 C-6.82246161 -0.75020501 -4.02857537 -0.26857169 0 0 Z " fill="#087834" transform="translate(272,403)"/>
<path d="M0 0 C0 0.66 0 1.32 0 2 C-1.65 2.33 -3.3 2.66 -5 3 C-5.93423645 6.01031744 -6.04449911 6.86650268 -5 10 C-3.35 10.33 -1.7 10.66 0 11 C0 11.66 0 12.32 0 13 C-3.375 13.1875 -3.375 13.1875 -7 13 C-9.46324069 9.30513897 -9.38991688 7.36706908 -9 3 C-6.82246161 -0.75020501 -4.02857537 -0.26857169 0 0 Z " fill="#087834" transform="translate(230,403)"/>
<path d="M0 0 C5.49338419 0.58394241 10.22829402 1.96127864 15.375 3.9375 C16.09816406 4.20240234 16.82132812 4.46730469 17.56640625 4.74023438 C22.87323778 6.74647556 22.87323778 6.74647556 24 9 C18.70788977 8.03961705 13.62444596 6.46229521 8.47265625 4.9375 C5.31733927 4.08567089 2.23097745 3.47354784 -1 3 C-0.67 2.01 -0.34 1.02 0 0 Z " fill="#D7E3EB" transform="translate(413,335)"/>
<path d="M0 0 C1.98 0 3.96 0 6 0 C6 0.66 6 1.32 6 2 C4.68 2 3.36 2 2 2 C2 3.32 2 4.64 2 6 C3.32 6 4.64 6 6 6 C6 6.66 6 7.32 6 8 C4.68 8 3.36 8 2 8 C2 9.65 2 11.3 2 13 C1.34 13 0.68 13 0 13 C0 8.71 0 4.42 0 0 Z " fill="#087834" transform="translate(336,403)"/>
<path d="M0 0 C0.66 0 1.32 0 2 0 C2 4.29 2 8.58 2 13 C3.98 13 5.96 13 8 13 C8 13.66 8 14.32 8 15 C5.36 15 2.72 15 0 15 C0 10.05 0 5.1 0 0 Z " fill="#000000" transform="translate(377,378)"/>
<path d="M0 0 C2.97 0 5.94 0 9 0 C9 0.66 9 1.32 9 2 C8.01 2 7.02 2 6 2 C6 5.63 6 9.26 6 13 C5.34 13 4.68 13 4 13 C4 9.37 4 5.74 4 2 C2.68 2 1.36 2 0 2 C0 1.34 0 0.68 0 0 Z " fill="#087834" transform="translate(355,403)"/>
<path d="M0 0 C2.97 0 5.94 0 9 0 C9 0.66 9 1.32 9 2 C7.68 2 6.36 2 5 2 C5 5.63 5 9.26 5 13 C4.34 13 3.68 13 3 13 C3 9.37 3 5.74 3 2 C2.01 2 1.02 2 0 2 C0 1.34 0 0.68 0 0 Z " fill="#087834" transform="translate(273,403)"/>
<path d="M0 0 C0.66 0 1.32 0 2 0 C2 4.29 2 8.58 2 13 C3.65 13 5.3 13 7 13 C7 13.66 7 14.32 7 15 C4.69 15 2.38 15 0 15 C0 10.05 0 5.1 0 0 Z " fill="#000000" transform="translate(253,378)"/>
<path d="M0 0 C0.66 0 1.32 0 2 0 C2 3.63 2 7.26 2 11 C3.65 11 5.3 11 7 11 C7 11.66 7 12.32 7 13 C4.69 13 2.38 13 0 13 C0 8.71 0 4.42 0 0 Z " fill="#087834" transform="translate(245,403)"/>
<path d="M0 0 C0.66 0 1.32 0 2 0 C2 4.95 2 9.9 2 15 C1.34 15 0.68 15 0 15 C0 10.05 0 5.1 0 0 Z " fill="#000000" transform="translate(372,378)"/>
<path d="M0 0 C1.98 1.65 3.96 3.3 6 5 C5.67 5.66 5.34 6.32 5 7 C5.495 7.99 5.99 8.98 6.5 10 C6.995 10.99 7.49 11.98 8 13 C7.67 13.66 7.34 14.32 7 15 C5.82823482 12.87767021 4.66245215 10.75242209 3.5 8.625 C3.16613281 8.02171875 2.83226562 7.4184375 2.48828125 6.796875 C0 2.2265625 0 2.2265625 0 0 Z " fill="#C5DAE5" transform="translate(178,307)"/>
<path d="M0 0 C3.375 0.3125 3.375 0.3125 7 1 C7.66 1.99 8.32 2.98 9 4 C5.7 3.67 2.4 3.34 -1 3 C-0.67 2.01 -0.34 1.02 0 0 Z " fill="#C0D6E3" transform="translate(413,335)"/>
</svg>
